<?xml version="1.0" encoding="UTF-8" standalone="no"?>
<svg width="28px" height="43px" viewBox="0 0 28 43" version="1.1" xmlns="http://www.w3.org/2000/svg" xmlns:xlink="http://www.w3.org/1999/xlink" xmlns:sketch="http://www.bohemiancoding.com/sketch/ns">
    <!-- Generator: Sketch 3.3.3 (12081) - http://www.bohemiancoding.com/sketch -->
    <title>Fill 82</title>
    <desc>Created with Sketch.</desc>
    <defs></defs>
    <g id="Icons" stroke="none" stroke-width="1" fill="none" fill-rule="evenodd" sketch:type="MSPage">
        <g id="outline" sketch:type="MSLayerGroup" transform="translate(-805.000000, -699.000000)" fill="#5B5B58">
            <g id="Fill-82" transform="translate(805.000000, 699.000000)" sketch:type="MSShapeGroup">
                <path d="M26.9188669,0.383228831 L6.60682863,0.383228831 C6.54219859,0.384139113 0.134721774,0.591683468 0.134721774,9.76459778 L0.134721774,41.6672601 C0.134721774,41.9194083 0.27399496,42.15062 0.496103831,42.2689567 C0.716392137,42.3882036 0.985835685,42.3754597 1.19611089,42.2352762 L9.72545565,36.5505635 L12.2105262,36.5505635 L20.7389607,42.2352762 C20.852746,42.3117399 20.9847369,42.3499718 21.1176381,42.3499718 C21.2277823,42.3499718 21.3379264,42.3235736 21.439878,42.2689567 C21.6619869,42.15062 21.8003498,41.9194083 21.8003498,41.6672601 L21.8003498,9.76459778 C21.8003498,2.05541734 26.7340796,1.75775504 26.9407137,1.74865222 C27.3121089,1.73681855 27.6070403,1.42732258 27.6015786,1.05501714 C27.5952067,0.682711694 27.2911724,0.383228831 26.9188669,0.383228831 L26.9188669,0.383228831 Z M20.4349264,9.76459778 L20.4349264,40.3919546 L12.796748,35.2998357 C12.6847833,35.2251925 12.5537026,35.1851401 12.4189808,35.1851401 L9.51882157,35.1851401 C9.38318952,35.1851401 9.25210887,35.2251925 9.14014415,35.2998357 L1.50014516,40.3919546 L1.50014516,9.76459778 C1.50014516,1.97895363 6.42204133,1.75411391 6.61684173,1.74865222 L23.54263,1.74865222 C21.9696623,2.98026411 20.4349264,5.32151008 20.4349264,9.76459778 L20.4349264,9.76459778 Z" id="bookmark"></path>
            </g>
        </g>
    </g>
</svg>