<?xml version="1.0" encoding="UTF-8" standalone="no"?>
<svg width="44px" height="44px" viewBox="0 0 44 44" version="1.1" xmlns="http://www.w3.org/2000/svg" xmlns:xlink="http://www.w3.org/1999/xlink" xmlns:sketch="http://www.bohemiancoding.com/sketch/ns">
    <!-- Generator: Sketch 3.3.3 (12081) - http://www.bohemiancoding.com/sketch -->
    <title>Fill 181</title>
    <desc>Created with Sketch.</desc>
    <defs></defs>
    <g id="Icons" stroke="none" stroke-width="1" fill="none" fill-rule="evenodd" sketch:type="MSPage">
        <g id="outline" sketch:type="MSLayerGroup" transform="translate(-194.000000, -177.000000)" fill="#5B5B58">
            <path d="M229.398,205.675 C227.079,205.675 225.001,206.714 223.595,208.346 L212.484,200.501 C213.352,199.055 213.86,197.37 213.86,195.564 C213.86,194.359 213.628,193.211 213.222,192.146 L223.58,187.4 C224.701,189.365 226.812,190.696 229.232,190.696 C232.82,190.696 235.74,187.776 235.74,184.187 C235.74,180.6 232.82,177.681 229.232,177.681 C225.644,177.681 222.724,180.6 222.724,184.187 C222.724,184.823 222.82,185.438 222.991,186.021 L212.582,190.79 C210.919,187.893 207.8,185.932 204.225,185.932 C198.913,185.932 194.592,190.253 194.592,195.564 C194.592,200.877 198.913,205.199 204.225,205.199 C207.195,205.199 209.853,203.847 211.622,201.729 L222.731,209.572 C222.101,210.684 221.736,211.965 221.736,213.331 C221.736,217.555 225.173,220.99 229.398,220.99 C233.621,220.99 237.055,217.555 237.055,213.331 C237.055,209.109 233.621,205.675 229.398,205.675 L229.398,205.675 Z M229.232,179.181 C231.993,179.181 234.24,181.426 234.24,184.187 C234.24,186.949 231.993,189.196 229.232,189.196 C226.471,189.196 224.224,186.949 224.224,184.187 C224.224,181.426 226.471,179.181 229.232,179.181 L229.232,179.181 Z M204.225,203.699 C199.74,203.699 196.092,200.05 196.092,195.564 C196.092,191.08 199.74,187.432 204.225,187.432 C208.711,187.432 212.36,191.08 212.36,195.564 C212.36,200.05 208.711,203.699 204.225,203.699 L204.225,203.699 Z M229.398,219.49 C226,219.49 223.236,216.727 223.236,213.331 C223.236,209.937 226,207.175 229.398,207.175 C232.793,207.175 235.555,209.937 235.555,213.331 C235.555,216.727 232.793,219.49 229.398,219.49 L229.398,219.49 Z" id="Fill-181" sketch:type="MSShapeGroup"></path>
        </g>
    </g>
</svg>