<?xml version="1.0" encoding="UTF-8" standalone="no"?>
<svg width="41px" height="41px" viewBox="0 0 41 41" version="1.1" xmlns="http://www.w3.org/2000/svg" xmlns:xlink="http://www.w3.org/1999/xlink" xmlns:sketch="http://www.bohemiancoding.com/sketch/ns">
    <!-- Generator: Sketch 3.3.3 (12081) - http://www.bohemiancoding.com/sketch -->
    <title>Fill 85</title>
    <desc>Created with Sketch.</desc>
    <defs></defs>
    <g id="Icons" stroke="none" stroke-width="1" fill="none" fill-rule="evenodd" sketch:type="MSPage">
        <g id="outline" sketch:type="MSLayerGroup" transform="translate(-573.000000, -702.000000)" fill="#5B5B58">
            <path d="M613.195,720.255 C613.762,719.659 613.971,718.963 613.773,718.346 C613.574,717.727 612.996,717.282 612.185,717.126 L602.483,715.274 C601.603,715.114 600.443,714.275 600,713.481 L594.248,703.106 C594.115,702.868 593.863,702.72 593.592,702.72 C593.318,702.72 593.068,702.867 592.936,703.105 L587.172,713.478 C586.727,714.275 585.565,715.114 584.68,715.276 L574.965,717.126 C574.166,717.282 573.592,717.726 573.392,718.342 C573.191,718.958 573.396,719.654 573.955,720.254 L580.707,727.409 C581.322,728.059 581.768,729.424 581.662,730.325 L580.435,740.032 C580.324,740.885 580.598,741.403 580.849,741.688 C581.355,742.267 582.227,742.386 583.098,741.979 L592.046,737.819 C592.83,737.452 594.336,737.452 595.125,737.819 L604.068,741.979 C604.418,742.143 604.762,742.226 605.088,742.226 C605.578,742.226 606.014,742.035 606.318,741.689 C606.569,741.404 606.844,740.886 606.733,740.036 L605.506,730.322 C605.389,729.43 605.836,728.068 606.463,727.407 L613.195,720.255 L613.195,720.255 Z M605.373,726.377 C604.439,727.36 603.844,729.179 604.017,730.513 L605.245,740.227 C605.283,740.509 605.228,740.656 605.191,740.699 C605.117,740.781 604.9,740.713 604.703,740.62 L595.758,736.46 C595.164,736.184 594.392,736.031 593.583,736.031 C592.775,736.031 592.004,736.184 591.412,736.46 L582.463,740.62 C582.148,740.769 582.025,740.757 581.977,740.699 C581.939,740.657 581.885,740.51 581.924,740.224 L583.15,730.507 C583.309,729.16 582.715,727.347 581.797,726.379 L575.05,719.227 C574.823,718.984 574.81,718.832 574.818,718.805 C574.828,718.777 574.928,718.662 575.25,718.599 L584.955,716.751 C586.271,716.511 587.819,715.394 588.48,714.209 L593.591,705.015 L598.69,714.211 C599.35,715.394 600.898,716.511 602.208,716.749 L611.902,718.599 C612.232,718.662 612.337,718.779 612.344,718.805 C612.352,718.829 612.336,718.982 612.105,719.226 L605.373,726.377 L605.373,726.377 Z" id="Fill-85" sketch:type="MSShapeGroup"></path>
        </g>
    </g>
</svg>