<?xml version="1.0" encoding="UTF-8" standalone="no"?>
<svg width="52px" height="41px" viewBox="0 0 52 41" version="1.1" xmlns="http://www.w3.org/2000/svg" xmlns:xlink="http://www.w3.org/1999/xlink" xmlns:sketch="http://www.bohemiancoding.com/sketch/ns">
    <!-- Generator: Sketch 3.3.3 (12081) - http://www.bohemiancoding.com/sketch -->
    <title>Fill 92</title>
    <desc>Created with Sketch.</desc>
    <defs></defs>
    <g id="Icons" stroke="none" stroke-width="1" fill="none" fill-rule="evenodd" sketch:type="MSPage">
        <path d="M25.719,20.931 C31.467,20.931 36.144,16.255 36.144,10.507 C36.144,4.762 31.467,0.087 25.719,0.087 C19.974,0.087 15.3,4.762 15.3,10.507 C15.3,16.255 19.974,20.931 25.719,20.931 L25.719,20.931 Z M25.719,1.587 C30.64,1.587 34.644,5.589 34.644,10.507 C34.644,15.428 30.64,19.431 25.719,19.431 C20.801,19.431 16.8,15.428 16.8,10.507 C16.8,5.589 20.801,1.587 25.719,1.587 L25.719,1.587 Z M41.44,17.401 C40.014,17.401 38.678,16.923 37.575,16.019 C37.256,15.756 36.782,15.802 36.52,16.123 C36.257,16.443 36.304,16.916 36.624,17.179 C37.978,18.289 39.688,18.901 41.44,18.901 C45.641,18.901 49.058,15.485 49.058,11.286 C49.058,7.088 45.641,3.673 41.44,3.673 C39.686,3.673 37.976,4.284 36.623,5.394 C36.304,5.656 36.257,6.129 36.52,6.449 C36.782,6.769 37.256,6.816 37.576,6.554 C38.66,5.663 40.033,5.173 41.44,5.173 C44.813,5.173 47.558,7.915 47.558,11.286 C47.558,14.658 44.813,17.401 41.44,17.401 L41.44,17.401 Z M36.503,26.374 C33.794,21.859 28.107,22.424 27.946,22.448 L23.313,22.448 C23.109,22.444 18.533,22.324 15.844,26.189 C14.353,28.327 12.163,36.531 11.393,39.945 C11.301,40.35 11.555,40.751 11.959,40.842 C12.363,40.935 12.764,40.68 12.855,40.275 C13.665,36.69 15.801,28.874 17.075,27.047 C19.287,23.867 23.23,23.955 23.287,23.948 L28.026,23.944 C28.076,23.938 33.037,23.461 35.238,27.18 C35.255,27.209 35.274,27.237 35.295,27.264 C36.646,28.969 38.908,36.643 39.741,40.278 C39.821,40.625 40.13,40.86 40.472,40.86 C40.527,40.86 40.583,40.854 40.64,40.842 C41.043,40.749 41.296,40.347 41.203,39.942 C40.549,37.091 38.231,28.623 36.503,26.374 L36.503,26.374 Z M9.996,18.901 C11.749,18.901 13.461,18.289 14.815,17.179 C15.135,16.916 15.182,16.443 14.919,16.123 C14.656,15.802 14.184,15.756 13.864,16.019 C12.761,16.923 11.424,17.401 9.996,17.401 C6.623,17.401 3.879,14.658 3.879,11.286 C3.879,7.915 6.623,5.173 9.996,5.173 C11.424,5.173 12.76,5.65 13.86,6.554 C14.181,6.816 14.654,6.769 14.916,6.449 C15.179,6.129 15.132,5.656 14.812,5.394 C13.46,4.284 11.749,3.673 9.996,3.673 C5.796,3.673 2.379,7.088 2.379,11.286 C2.379,15.485 5.796,18.901 9.996,18.901 L9.996,18.901 Z M51.03,29.435 C50.231,25.831 49.424,23.427 48.632,22.288 C46.662,19.451 43.285,19.539 43.17,19.542 L39.946,19.547 C39.783,19.525 35.912,19.141 33.838,22.076 C33.599,22.414 33.68,22.883 34.018,23.121 C34.355,23.359 34.824,23.28 35.063,22.941 C36.62,20.736 39.752,21.032 39.864,21.042 L43.197,21.042 C43.223,21.023 45.891,20.97 47.401,23.144 C47.868,23.816 48.623,25.51 49.565,29.759 C49.643,30.108 49.953,30.347 50.297,30.347 C50.351,30.347 50.405,30.341 50.459,30.329 C50.864,30.239 51.119,29.839 51.03,29.435 L51.03,29.435 Z M16.556,23.223 C16.768,23.581 17.227,23.699 17.583,23.486 C17.94,23.275 18.058,22.815 17.847,22.459 C15.863,19.11 11.669,19.527 11.573,19.542 L8.295,19.542 C8.159,19.542 4.776,19.448 2.805,22.288 C2.009,23.433 1.203,25.838 0.409,29.435 C0.32,29.84 0.576,30.24 0.98,30.329 C1.035,30.341 1.089,30.347 1.142,30.347 C1.486,30.347 1.797,30.108 1.874,29.758 C2.604,26.449 3.372,24.1 4.037,23.144 C5.532,20.989 8.129,21.042 8.269,21.042 L11.652,21.038 C11.687,21.034 15.07,20.714 16.556,23.223 L16.556,23.223 Z" id="Fill-92" fill="#5B5B58" sketch:type="MSShapeGroup"></path>
    </g>
</svg>