<?xml version="1.0" encoding="UTF-8" standalone="no"?>
<svg width="49px" height="48px" viewBox="0 0 49 48" version="1.1" xmlns="http://www.w3.org/2000/svg" xmlns:xlink="http://www.w3.org/1999/xlink" xmlns:sketch="http://www.bohemiancoding.com/sketch/ns">
    <!-- Generator: Sketch 3.4.2 (15857) - http://www.bohemiancoding.com/sketch -->
    <title>back-rect-line</title>
    <desc>Created with Sketch.</desc>
    <defs></defs>
    <g id="Icons" stroke="none" stroke-width="1" fill="none" fill-rule="evenodd" sketch:type="MSPage">
        <g id="Custom" sketch:type="MSLayerGroup" transform="translate(-536.000000, -9.000000)" fill="#FFFFFF">
            <g id="white-fwd-bck" transform="translate(438.000000, 0.000000)" sketch:type="MSShapeGroup">
                <g id="back-rect-line" transform="translate(122.324170, 33.000000) scale(-1, 1) translate(-122.324170, -33.000000) translate(97.324170, 9.000000)">
                    <path d="M2.4813054,8.82252838 C2.4813054,4.89800735 6.56214283,1.72406229 11.6187614,1.72406229 L21.468059,1.72406229 L24.9168603,1.72406229 L25.0873634,1.72406229 C28.4965063,1.72406229 28.4965063,1.72406229 34.2676315,1.72406229 C37.3557531,1.72406229 37.3557531,1.72406229 38.44605,1.72406229 L38.6992509,1.72406229 L38.7470369,1.72406229 L38.7543999,1.72406229 L38.7546118,1.72406229 L38.7546722,1.72406229 C38.7546075,0.255319149 38.7546075,0.255319149 38.7543455,0.255319149 L38.7519518,0.255319149 L38.4879758,0.255319149 C38.4426766,0.255319149 38.4426766,0.255319149 38.3964659,0.255319149 L38.0382589,0.255319149 L38.0382589,1.72406229 C43.0781623,1.72406229 47.1709915,4.90793858 47.1709915,8.82252838 L47.1709915,39.1774716 C47.1709915,43.0987495 43.0841246,46.2759377 38.0370969,46.2759377 L11.6152,46.2759377 C6.57463094,46.2759377 2.4813054,43.0920425 2.4813054,39.1774716 L2.4813054,8.82252838 L2.4813054,8.82252838 Z M0.593008803,8.82252838 L0.593008803,39.1774716 C0.593008803,43.9032017 5.53174687,47.7446809 11.6152,47.7446809 L38.0370969,47.7446809 C44.1267849,47.7446809 49.0592881,43.910083 49.0592881,39.1774716 L49.0592881,8.82252838 C49.0592881,4.09681722 44.1210951,0.255319149 38.0382589,0.255319149 L38.0382589,1.72406229 L38.3964659,1.72406229 L38.4879758,1.72406229 L38.7519518,1.72406229 L38.7543455,1.72406229 L38.7546722,1.72406229 L38.7546118,0.255319149 L38.7543999,0.255319149 L38.7470369,0.255319149 L38.6992509,0.255319149 L38.44605,0.255319149 L34.2676315,0.255319149 L25.0873634,0.255319149 L24.9168603,0.255319149 L21.468059,0.255319149 L11.6187614,0.255319149 C5.51929027,0.255319149 0.593008803,4.08682358 0.593008803,8.82252838 L0.593008803,8.82252838 Z" id="Shape"></path>
                    <g id="Line-+-Line" transform="translate(18.825093, 23.790627) rotate(-225.000000) translate(-18.825093, -23.790627) translate(6.825093, 11.790627)">
                        <path d="M0.893119349,1.71000111 L23.033201,1.61980257 C23.4045127,1.61828985 23.7042567,1.32493986 23.7026979,0.964587029 C23.7011392,0.604234197 23.398868,0.313336812 23.0275563,0.314849533 L0.887474705,0.405048072 C0.516163021,0.406560793 0.216419025,0.699910784 0.21797775,1.06026362 C0.219536475,1.42061645 0.521807665,1.71151383 0.893119349,1.71000111 L0.893119349,1.71000111 Z" id="Shape"></path>
                        <path d="M1.61522368,22.9202509 L1.52228207,1.43360915 C1.52072335,1.07325632 1.21845216,0.782358929 0.847140476,0.783871651 C0.475828792,0.785384372 0.176084795,1.07873436 0.177643521,1.4390872 L0.270585128,22.9257289 C0.272143853,23.2860817 0.574415043,23.5769791 0.945726726,23.5754664 C1.31703841,23.5739537 1.61678241,23.2806037 1.61522368,22.9202509 L1.61522368,22.9202509 Z" id="Shape"></path>
                    </g>
                </g>
            </g>
        </g>
    </g>
</svg>