<?xml version="1.0" encoding="UTF-8" standalone="no"?>
<svg width="46px" height="50px" viewBox="0 0 46 50" version="1.1" xmlns="http://www.w3.org/2000/svg" xmlns:xlink="http://www.w3.org/1999/xlink" xmlns:sketch="http://www.bohemiancoding.com/sketch/ns">
    <!-- Generator: Sketch 3.4.2 (15857) - http://www.bohemiancoding.com/sketch -->
    <title>back-rect</title>
    <desc>Created with Sketch.</desc>
    <defs></defs>
    <g id="Icons" stroke="none" stroke-width="1" fill="none" fill-rule="evenodd" sketch:type="MSPage">
        <g id="back-rect" sketch:type="MSLayerGroup" transform="translate(24.000000, 25.000000) scale(-1, 1) translate(-24.000000, -25.000000) translate(0.000000, 1.000000)" stroke="#ffffff" fill="#fffff">
            <path d="M4.96387927,8.82252838 C4.96387927,4.89800735 8.65949242,1.72406229 13.2387746,1.72406229 L22.1583149,1.72406229 L25.281555,1.72406229 L25.4359629,1.72406229 C28.5232884,1.72406229 28.5232884,1.72406229 33.7496289,1.72406229 C36.546237,1.72406229 36.546237,1.72406229 37.5336117,1.72406229 L37.7629109,1.72406229 L37.8061859,1.72406229 L37.8128538,1.72406229 L37.8130458,1.72406229 L37.8131005,1.72406229 C37.8130419,0.255319149 37.8130419,0.255319149 37.8128046,0.255319149 L37.8106368,0.255319149 L37.5715797,0.255319149 C37.5305567,0.255319149 37.5305567,0.255319149 37.4887083,0.255319149 L37.1643154,0.255319149 L37.1643154,1.72406229 C41.7284603,1.72406229 45.4349332,4.90793858 45.4349332,8.82252838 L45.4349332,39.1774716 C45.4349332,43.0987495 41.7338598,46.2759377 37.1632631,46.2759377 L13.2355494,46.2759377 C8.67080167,46.2759377 4.96387927,43.0920425 4.96387927,39.1774716 L4.96387927,8.82252838 L4.96387927,8.82252838 Z M3.25383474,8.82252838 L3.25383474,39.1774716 C3.25383474,43.9032017 7.72636412,47.7446809 13.2355494,47.7446809 L37.1632631,47.7446809 C42.6780946,47.7446809 47.1449777,43.910083 47.1449777,39.1774716 L47.1449777,8.82252838 C47.1449777,4.09681722 42.672942,0.255319149 37.1643154,0.255319149 L37.1643154,1.72406229 L37.4887083,1.72406229 L37.5715797,1.72406229 L37.8106368,1.72406229 L37.8128046,1.72406229 L37.8131005,1.72406229 L37.8130458,0.255319149 L37.8128538,0.255319149 L37.8061859,0.255319149 L37.7629109,0.255319149 L37.5336117,0.255319149 L33.7496289,0.255319149 L25.4359629,0.255319149 L25.281555,0.255319149 L22.1583149,0.255319149 L13.2387746,0.255319149 C7.71508341,0.255319149 3.25383474,4.08682358 3.25383474,8.82252838 L3.25383474,8.82252838 Z" id="Shape" sketch:type="MSShapeGroup"></path>
            <g id="Line-+-Line" transform="translate(18.079631, 23.986210) rotate(-225.000000) translate(-18.079631, -23.986210) translate(4.803036, 11.986210)" sketch:type="MSShapeGroup">
                <path d="M0.967545961,1.71000111 L24.9526344,1.61980257 C25.3548887,1.61828985 25.6796114,1.32493986 25.6779228,0.964587029 C25.6762341,0.604234197 25.3487737,0.313336812 24.9465194,0.314849533 L0.96143093,0.405048072 C0.559176607,0.406560793 0.234453943,0.699910784 0.236142562,1.06026362 C0.237831181,1.42061645 0.565291637,1.71151383 0.967545961,1.71000111 L0.967545961,1.71000111 Z" id="Shape"></path>
                <path d="M1.74982566,22.9202509 L1.64913891,1.43360915 C1.64745029,1.07325632 1.31998984,0.782358929 0.917735515,0.783871651 C0.515481191,0.785384372 0.190758528,1.07873436 0.192447147,1.4390872 L0.293133888,22.9257289 C0.294822507,23.2860817 0.622282963,23.5769791 1.02453729,23.5754664 C1.42679161,23.5739537 1.75151427,23.2806037 1.74982566,22.9202509 L1.74982566,22.9202509 Z" id="Shape"></path>
            </g>
        </g>
    </g>
</svg>