<?xml version="1.0" encoding="UTF-8" standalone="no"?>
<svg width="50px" height="50px" viewBox="0 0 50 50" version="1.1" xmlns="http://www.w3.org/2000/svg" xmlns:xlink="http://www.w3.org/1999/xlink" xmlns:sketch="http://www.bohemiancoding.com/sketch/ns">
    <!-- Generator: Sketch 3.4.2 (15857) - http://www.bohemiancoding.com/sketch -->
    <title>back-btn</title>
    <desc>Created with Sketch.</desc>
    <defs></defs>
    <g id="Icons" stroke="none" stroke-width="1" fill="none" fill-rule="evenodd" sketch:type="MSPage">
        <g id="back-btn" sketch:type="MSLayerGroup" transform="translate(25.000000, 25.000000) scale(-1, -1) translate(-25.000000, -25.000000) " fill="#4A4A4A">
            <path d="M25,50 C38.8071187,50 50,38.8071187 50,25 C50,11.1928813 38.8071187,0 25,0 C11.1928813,0 0,11.1928813 0,25 C0,38.8071187 11.1928813,50 25,50 L25,50 Z M25,48.3516484 C12.1032407,48.3516484 1.64835165,37.8967593 1.64835165,25 C1.64835165,12.1032407 12.1032407,1.64835165 25,1.64835165 C37.8967593,1.64835165 48.3516484,12.1032407 48.3516484,25 C48.3516484,37.8967593 37.8967593,48.3516484 25,48.3516484 L25,48.3516484 Z" id="Shape" sketch:type="MSShapeGroup"></path>
            <g id="Line-+-Line" transform="translate(20.031223, 24.664256) rotate(-225.000000) translate(-20.031223, -24.664256) translate(8.531223, 12.738330)" sketch:type="MSShapeGroup">
                <path d="M0.848702425,1.67437609 L21.8877058,1.58605669 C22.2405513,1.58457548 22.5253883,1.29733695 22.5239071,0.944491466 C22.5224259,0.591645985 22.2351873,0.306808961 21.8823419,0.308290168 L0.843338503,0.39660957 C0.490493022,0.398090776 0.205655998,0.68532931 0.207137204,1.03817479 C0.20861841,1.39102027 0.495856944,1.6758573 0.848702425,1.67437609 L0.848702425,1.67437609 Z" id="Shape"></path>
                <path d="M1.53489481,22.4427456 L1.44657541,1.40374229 C1.4450942,1.05089681 1.15785567,0.766059785 0.805010189,0.767540991 C0.452164708,0.769022198 0.167327685,1.05626073 0.168808891,1.40910621 L0.257128294,22.4481096 C0.2586095,22.800955 0.545848033,23.0857921 0.898693514,23.0843109 C1.251539,23.0828297 1.53637602,22.7955911 1.53489481,22.4427456 L1.53489481,22.4427456 Z" id="Shape"></path>
            </g>
        </g>
    </g>
</svg>