<?xml version="1.0" encoding="UTF-8" standalone="no"?>
<svg width="54px" height="96px" viewBox="0 0 54 96" version="1.1" xmlns="http://www.w3.org/2000/svg" xmlns:xlink="http://www.w3.org/1999/xlink" xmlns:sketch="http://www.bohemiancoding.com/sketch/ns">
    <!-- Generator: Sketch 3.4.2 (15857) - http://www.bohemiancoding.com/sketch -->
    <title>back-btn</title>
    <desc>Created with Sketch.</desc>
    <defs></defs>
    <g id="Project-Plantzr-Mobile" stroke="none" stroke-width="1" fill="none" fill-rule="evenodd" sketch:type="MSPage">
        <g id="Desktop-HD" sketch:type="MSArtboardGroup" transform="translate(-30.000000, -1269.000000)" fill="#4A4A4A">
            <g id="back-btn" sketch:type="MSLayerGroup" transform="translate(59.520833, 1317.000000) scale(-1, 1) translate(-59.520833, -1317.000000) translate(30.020833, 1269.000000)">
                <path d="M7.328125,17.5505591 C7.328125,9.67579308 11.8529721,3.30709878 17.4597688,3.30709878 L28.3807051,3.30709878 L32.2047483,3.30709878 L32.3938027,3.30709878 C36.1738725,3.30709878 36.1738725,3.30709878 42.5729167,3.30709878 C45.997037,3.30709878 45.997037,3.30709878 47.205962,3.30709878 L47.4867121,3.30709878 L47.5396974,3.30709878 L47.5478615,3.30709878 L47.5480965,3.30709878 L47.5481635,3.30709878 C47.5480918,0.359985352 47.5480918,0.359985352 47.5478012,0.359985352 L47.545147,0.359985352 L47.2524495,0.359985352 C47.2022216,0.359985352 47.2022216,0.359985352 47.1509831,0.359985352 L46.7538019,0.359985352 L46.7538019,3.30709878 C52.3420647,3.30709878 56.8802083,9.69572063 56.8802083,17.5505591 L56.8802083,78.4594125 C56.8802083,86.327671 52.3486758,92.7028728 46.7525134,92.7028728 L17.4558199,92.7028728 C11.866819,92.7028728 7.328125,86.314213 7.328125,78.4594125 L7.328125,17.5505591 L7.328125,17.5505591 Z M5.234375,17.5505591 L5.234375,78.4594125 C5.234375,87.9418484 10.7104654,95.6499863 17.4558199,95.6499863 L46.7525134,95.6499863 C53.5047811,95.6499863 58.9739583,87.9556559 58.9739583,78.4594125 L58.9739583,17.5505591 C58.9739583,8.06816129 53.4984723,0.359985352 46.7538019,0.359985352 L46.7538019,3.30709878 L47.1509831,3.30709878 L47.2524495,3.30709878 L47.545147,3.30709878 L47.5478012,3.30709878 L47.5481635,3.30709878 L47.5480965,0.359985352 L47.5478615,0.359985352 L47.5396974,0.359985352 L47.4867121,0.359985352 L47.205962,0.359985352 L42.5729167,0.359985352 L32.3938027,0.359985352 L32.2047483,0.359985352 C30.4261346,0.359985352 30.4261346,0.359985352 28.3807051,0.359985352 L17.4597688,0.359985352 C10.6966535,0.359985352 5.234375,8.04810849 5.234375,17.5505591 L5.234375,17.5505591 Z" id="Shape" sketch:type="MSShapeGroup"></path>
                <g id="Line-+-Line" transform="translate(23.371909, 48.142743) rotate(-225.000000) translate(-23.371909, -48.142743) translate(7.319826, 31.141955)" sketch:type="MSShapeGroup">
                    <path d="M1.18464713,2.38687655 L30.5515893,2.26097443 C31.0441028,2.25886292 31.4416878,1.84939522 31.4396203,1.34640273 C31.4375528,0.843410234 31.0366157,0.437365966 30.5441022,0.439477473 L1.17715999,0.5653796 C0.684646509,0.567491107 0.287061497,0.976958803 0.289129014,1.4799513 C0.291196531,1.98294379 0.692133651,2.38898806 1.18464713,2.38687655 L1.18464713,2.38687655 Z" id="Shape"></path>
                    <path d="M2.14245734,31.9928502 L2.01917818,2.00107943 C2.01711066,1.49808694 1.61617354,1.09204267 1.12366006,1.09415418 C0.631146572,1.09626569 0.23356156,1.50573338 0.235629077,2.00872588 L0.358908243,32.0004966 C0.36097576,32.5034891 0.76191288,32.9095334 1.25442636,32.9074219 C1.74693985,32.9053104 2.14452486,32.4958427 2.14245734,31.9928502 L2.14245734,31.9928502 Z" id="Shape"></path>
                </g>
            </g>
        </g>
    </g>
</svg>