<?xml version="1.0" encoding="UTF-8" standalone="no"?>
<svg width="37px" height="44px" viewBox="0 0 37 44" version="1.1" xmlns="http://www.w3.org/2000/svg" xmlns:xlink="http://www.w3.org/1999/xlink" xmlns:sketch="http://www.bohemiancoding.com/sketch/ns">
    <!-- Generator: Sketch 3.3.3 (12081) - http://www.bohemiancoding.com/sketch -->
    <title>Fill 148</title>
    <desc>Created with Sketch.</desc>
    <defs></defs>
    <g id="Icons" stroke="none" stroke-width="1" fill="none" fill-rule="evenodd" sketch:type="MSPage">
        <g id="outline" sketch:type="MSLayerGroup" transform="translate(-726.000000, -327.000000)" fill="#5B5B58">
            <path d="M749.055,348.891 C748.838,348.628 748.583,348.396 748.299,348.199 C748.484,348.053 748.654,347.89 748.809,347.71 C749.096,347.374 749.32,346.983 749.475,346.547 C749.624,346.122 749.699,345.664 749.699,345.183 C749.699,344.465 749.542,343.828 749.233,343.288 C748.933,342.767 748.537,342.335 748.055,342.005 C747.591,341.685 747.057,341.448 746.467,341.3 C745.182,340.976 743.759,341.012 742.658,341.469 C742.039,341.726 741.5,342.088 741.061,342.544 C740.616,343.002 740.273,343.56 740.037,344.206 C739.81,344.833 739.695,345.524 739.695,346.261 C739.695,346.675 740.031,347.011 740.445,347.011 L741.175,347.011 C741.576,347.011 741.906,346.695 741.925,346.295 C741.947,345.82 742.024,345.376 742.156,344.977 C742.281,344.604 742.451,344.296 742.674,344.038 C742.889,343.791 743.166,343.591 743.498,343.444 C744.079,343.19 744.879,343.134 745.749,343.358 C746.088,343.447 746.398,343.581 746.666,343.754 C746.914,343.913 747.108,344.112 747.262,344.363 C747.4,344.59 747.469,344.858 747.469,345.183 C747.469,345.606 747.385,345.944 747.22,346.191 C747.041,346.459 746.812,346.664 746.521,346.819 C746.199,346.99 745.832,347.105 745.429,347.163 C744.987,347.227 744.537,347.248 744.098,347.225 C743.899,347.219 743.693,347.288 743.543,347.43 C743.394,347.571 743.31,347.768 743.31,347.974 L743.31,348.609 C743.31,348.817 743.396,349.016 743.549,349.157 C743.701,349.3 743.904,349.379 744.112,349.357 C744.61,349.323 745.099,349.34 745.58,349.41 C746.024,349.474 746.421,349.601 746.762,349.788 C747.072,349.957 747.312,350.188 747.502,350.495 C747.684,350.79 747.777,351.185 747.777,351.67 C747.777,352.076 747.699,352.423 747.541,352.731 C747.381,353.043 747.166,353.306 746.896,353.515 C746.623,353.731 746.295,353.898 745.92,354.012 C745.043,354.28 744.051,354.236 743.326,353.96 C742.939,353.813 742.625,353.613 742.365,353.347 C742.108,353.086 741.916,352.768 741.777,352.371 C741.637,351.975 741.576,351.51 741.598,350.988 C741.607,350.784 741.532,350.586 741.391,350.438 C741.248,350.291 741.053,350.208 740.85,350.208 L740.116,350.208 C739.717,350.208 739.388,350.52 739.367,350.918 C739.324,351.756 739.419,352.516 739.649,353.178 C739.887,353.857 740.254,354.44 740.74,354.908 C741.217,355.375 741.809,355.734 742.495,355.976 C743.156,356.208 743.904,356.326 744.716,356.326 C745.398,356.326 746.058,356.234 746.675,356.055 C747.318,355.869 747.892,355.578 748.377,355.191 C748.873,354.796 749.27,354.3 749.559,353.72 C749.857,353.132 750.008,352.442 750.008,351.67 C750.008,351.135 749.925,350.627 749.764,350.165 C749.602,349.694 749.363,349.267 749.055,348.891 L749.055,348.891 Z M760.916,330.242 L756.12,330.242 L756.12,328.22 C756.12,327.806 755.785,327.47 755.37,327.47 C754.957,327.47 754.621,327.806 754.621,328.22 L754.621,330.242 L745.379,330.242 L745.379,328.22 C745.379,327.806 745.043,327.47 744.629,327.47 C744.215,327.47 743.879,327.806 743.879,328.22 L743.879,330.242 L734.634,330.242 L734.634,328.22 C734.634,327.806 734.299,327.47 733.885,327.47 C733.471,327.47 733.135,327.806 733.135,328.22 L733.135,330.242 L728.451,330.242 C727.389,330.242 726.523,331.106 726.523,332.169 L726.524,368.268 C726.558,369.316 727.402,370.138 728.451,370.138 L760.916,370.138 C761.963,370.138 762.809,369.316 762.841,368.244 L762.841,332.169 C762.841,331.106 761.977,330.242 760.916,330.242 L760.916,330.242 Z M755.37,335.495 C755.529,335.495 755.67,335.435 755.791,335.35 C755.684,335.457 755.537,335.524 755.375,335.524 C755.267,335.524 755.172,335.487 755.084,335.437 C755.174,335.474 755.269,335.495 755.37,335.495 L755.37,335.495 Z M744.629,335.495 C744.732,335.495 744.83,335.475 744.921,335.437 C744.833,335.487 744.738,335.524 744.631,335.524 C744.521,335.524 744.426,335.487 744.338,335.437 C744.429,335.475 744.525,335.495 744.629,335.495 L744.629,335.495 Z M733.885,335.495 C733.988,335.495 734.087,335.475 734.176,335.437 C734.09,335.487 733.994,335.524 733.887,335.524 C733.779,335.524 733.684,335.487 733.596,335.437 C733.685,335.475 733.781,335.495 733.885,335.495 L733.885,335.495 Z M728.451,368.638 C728.219,368.638 728.032,368.455 728.025,368.244 L728.025,361.822 L749.873,361.822 C749.371,363.943 748.356,366.675 746.329,368.638 L728.451,368.638 L728.451,368.638 Z M761.341,368.222 C761.334,368.451 761.143,368.638 760.916,368.638 L748.787,368.638 C750.07,367.513 751.382,366.142 752.749,364.708 L753.477,363.945 C755.625,361.7 759.109,357.889 761.341,354.592 L761.341,368.222 L761.341,368.222 Z M750.491,364.897 C751.434,362.526 751.733,360.28 751.826,359.249 C752.671,359.036 754.4,358.524 756.799,357.425 C757.104,357.285 757.4,357.13 757.69,356.963 C755.857,359.215 753.822,361.414 752.393,362.908 L751.662,363.673 C751.268,364.088 750.877,364.498 750.491,364.897 L750.491,364.897 Z M761.341,351.644 C760.773,352.394 758.767,354.872 756.174,356.062 C752.962,357.533 751.004,357.898 750.983,357.902 C750.637,357.965 750.379,358.261 750.366,358.613 C750.366,358.634 750.337,359.305 750.174,360.322 L728.025,360.322 L728.023,332.169 C728.023,331.934 728.215,331.742 728.451,331.742 L733.135,331.742 L733.135,332.989 C732.352,333.292 731.795,334.047 731.795,334.934 C731.795,336.087 732.733,337.024 733.887,337.024 C735.037,337.024 735.975,336.087 735.975,334.934 C735.975,334.046 735.416,333.29 734.634,332.988 L734.634,331.742 L743.879,331.742 L743.879,332.988 C743.096,333.291 742.537,334.046 742.537,334.934 C742.537,336.087 743.477,337.024 744.631,337.024 C745.782,337.024 746.719,336.087 746.719,334.934 C746.719,334.046 746.16,333.29 745.379,332.988 L745.379,331.742 L754.621,331.742 L754.621,332.989 C753.84,333.293 753.283,334.047 753.283,334.934 C753.283,336.087 754.221,337.024 755.375,337.024 C756.525,337.024 757.463,336.087 757.463,334.934 C757.463,334.045 756.902,333.289 756.12,332.987 L756.12,331.742 L760.916,331.742 C761.15,331.742 761.341,331.934 761.341,332.169 L761.341,351.644 L761.341,351.644 Z" id="Fill-148" sketch:type="MSShapeGroup"></path>
        </g>
    </g>
</svg>