<?xml version="1.0" encoding="UTF-8" standalone="no"?>
<svg width="41px" height="41px" viewBox="0 0 41 41" version="1.1" xmlns="http://www.w3.org/2000/svg" xmlns:xlink="http://www.w3.org/1999/xlink" xmlns:sketch="http://www.bohemiancoding.com/sketch/ns">
    <!-- Generator: Sketch 3.3.3 (12081) - http://www.bohemiancoding.com/sketch -->
    <title>Fill 143</title>
    <desc>Created with Sketch.</desc>
    <defs></defs>
    <g id="Icons" stroke="none" stroke-width="1" fill="none" fill-rule="evenodd" sketch:type="MSPage">
        <path d="M21.332,20.538 L40.098,1.772 C40.391,1.479 40.391,1.005 40.098,0.712 C39.805,0.419 39.33,0.419 39.037,0.712 L20.272,19.477 L1.506,0.712 C1.213,0.419 0.739,0.419 0.446,0.712 C0.153,1.005 0.153,1.479 0.446,1.772 L19.211,20.538 L0.446,39.303 C0.153,39.596 0.153,40.07 0.446,40.363 C0.592,40.51 0.784,40.583 0.976,40.583 C1.168,40.583 1.36,40.51 1.506,40.363 L20.272,21.599 L39.037,40.363 C39.184,40.51 39.375,40.583 39.567,40.583 C39.759,40.583 39.951,40.51 40.098,40.363 C40.391,40.07 40.391,39.596 40.098,39.303 L21.332,20.538" id="Fill-143" fill="#5B5B58" sketch:type="MSShapeGroup"></path>
    </g>
</svg>