<?xml version="1.0" encoding="UTF-8" standalone="no"?>
<svg width="47px" height="50px" viewBox="0 0 47 50" version="1.1" xmlns="http://www.w3.org/2000/svg" xmlns:xlink="http://www.w3.org/1999/xlink" xmlns:sketch="http://www.bohemiancoding.com/sketch/ns">
    <!-- Generator: Sketch 3.3.3 (12081) - http://www.bohemiancoding.com/sketch -->
    <title>Fill 128</title>
    <desc>Created with Sketch.</desc>
    <defs></defs>
    <g id="Icons" stroke="none" stroke-width="1" fill="none" fill-rule="evenodd" sketch:type="MSPage">
        <path d="M46.037,23.186 C45.591,21.456 44.922,19.913 44.045,18.601 C43.906,18.356 43.569,18.044 42.761,18.044 C42.527,18.044 42.257,18.075 41.977,18.123 C41.612,8.19 31.965,0.834 23.316,0.834 C14.672,0.834 5.031,8.18 4.656,18.104 C4.414,18.068 4.185,18.044 3.99,18.044 C3.186,18.044 2.851,18.365 2.714,18.589 C1.833,19.906 1.16,21.452 0.712,23.187 C0.194,25.216 0.016,27.366 0.185,29.576 C0.349,31.789 0.846,33.889 1.663,35.816 C2.359,37.461 3.254,38.887 4.322,40.054 C4.463,40.229 4.678,40.335 4.907,40.335 C4.927,40.335 4.946,40.334 4.966,40.333 L6.132,40.246 C6.681,40.204 7.113,39.941 7.352,39.538 C8.167,39.518 8.892,39.208 9.399,38.66 C9.949,38.067 10.213,37.234 10.144,36.315 L9.688,30.249 C9.369,26.002 9.042,21.648 8.975,20.731 C8.847,19.045 7.765,18.135 6.16,18.331 C6.398,9.152 15.316,2.334 23.316,2.334 C31.31,2.334 40.219,9.143 40.471,18.31 C38.917,18.168 37.899,19.086 37.776,20.732 C37.673,22.124 36.969,31.494 36.606,36.315 C36.538,37.235 36.803,38.069 37.352,38.661 C37.86,39.208 38.583,39.518 39.398,39.538 C39.582,39.847 39.88,40.07 40.257,40.179 C38.605,41.846 36.179,43.892 33.314,44.852 C32.759,43.776 31.648,43.031 30.356,43.031 C28.515,43.031 27.017,44.529 27.017,46.37 C27.017,48.211 28.515,49.709 30.356,49.709 C32.198,49.709 33.696,48.211 33.696,46.37 C33.696,46.349 33.69,46.329 33.689,46.308 C38.323,44.795 41.815,40.781 43.155,39.235 C43.223,39.158 43.27,39.071 43.3,38.98 C43.989,38.044 44.592,36.989 45.088,35.816 C45.903,33.893 46.4,31.793 46.566,29.578 C46.735,27.362 46.558,25.212 46.037,23.186 L46.037,23.186 Z M6.604,19.788 C6.882,19.788 7.399,19.788 7.479,20.843 C7.546,21.757 7.873,26.113 8.192,30.361 L8.647,36.427 C8.685,36.927 8.562,37.357 8.299,37.641 C8.057,37.901 7.699,38.04 7.264,38.04 C7.175,38.04 7.084,38.034 7.033,38.029 C7.011,38.025 6.898,38.009 6.875,38.007 C6.672,37.99 6.44,38.056 6.285,38.198 C6.129,38.34 6.023,38.539 6.023,38.75 L5.223,38.81 C4.36,37.812 3.628,36.61 3.044,35.231 C2.291,33.454 1.832,31.515 1.681,29.464 C1.527,27.444 1.694,25.402 2.165,23.56 C2.556,22.046 3.132,20.697 3.879,19.548 C4.017,19.535 4.299,19.554 4.666,19.623 C4.826,19.926 5.179,20.087 5.52,19.996 L6.001,19.875 C6.226,19.817 6.429,19.788 6.604,19.788 L6.604,19.788 Z M30.356,48.209 C29.342,48.209 28.517,47.384 28.517,46.37 C28.517,45.356 29.342,44.531 30.356,44.531 C31.371,44.531 32.196,45.356 32.196,46.37 C32.196,47.384 31.371,48.209 30.356,48.209 L30.356,48.209 Z M45.07,29.465 C44.918,31.519 44.458,33.458 43.708,35.231 C43.123,36.611 42.391,37.815 41.526,38.811 L40.692,38.754 C40.692,38.543 40.603,38.342 40.447,38.199 C40.309,38.073 40.129,38.004 39.943,38.004 C39.92,38.004 39.896,38.005 39.873,38.008 C39.866,38.008 39.769,38.022 39.762,38.022 C39.206,38.089 38.743,37.955 38.452,37.641 C38.188,37.357 38.064,36.927 38.102,36.427 C38.466,31.606 39.17,22.235 39.272,20.844 C39.352,19.788 39.869,19.788 40.146,19.788 C40.322,19.788 40.525,19.817 40.754,19.876 L41.233,19.996 C41.572,20.084 41.925,19.925 42.086,19.623 C42.425,19.557 42.73,19.536 42.873,19.548 C43.619,20.695 44.193,22.045 44.584,23.56 C45.057,25.399 45.225,27.441 45.07,29.465 L45.07,29.465 Z" id="Fill-128" fill="#5B5B58" sketch:type="MSShapeGroup"></path>
    </g>
</svg>