<?xml version="1.0" encoding="UTF-8" standalone="no"?>
<svg width="39px" height="44px" viewBox="0 0 39 44" version="1.1" xmlns="http://www.w3.org/2000/svg" xmlns:xlink="http://www.w3.org/1999/xlink" xmlns:sketch="http://www.bohemiancoding.com/sketch/ns">
    <!-- Generator: Sketch 3.3.3 (12081) - http://www.bohemiancoding.com/sketch -->
    <title>Fill 190</title>
    <desc>Created with Sketch.</desc>
    <defs></defs>
    <g id="Icons" stroke="none" stroke-width="1" fill="none" fill-rule="evenodd" sketch:type="MSPage">
        <path d="M23.72,5.688 C23.32,5.588 22.91,5.829 22.808,6.231 C22.707,6.633 22.949,7.04 23.352,7.143 C31.141,9.117 36.581,16.104 36.581,24.132 C36.581,33.808 28.709,41.68 19.034,41.68 C9.356,41.68 1.483,33.808 1.483,24.132 C1.483,16.196 6.846,9.23 14.524,7.192 C14.925,7.086 15.163,6.675 15.057,6.274 C14.951,5.875 14.543,5.636 14.14,5.742 C5.805,7.955 -0.017,15.518 -0.017,24.132 C-0.017,34.635 8.529,43.18 19.034,43.18 C29.537,43.18 38.081,34.635 38.081,24.132 C38.081,15.416 32.175,7.832 23.72,5.688 L23.72,5.688 Z M18.933,15.988 C19.347,15.988 19.683,15.652 19.683,15.238 L19.683,0.774 C19.683,0.36 19.347,0.024 18.933,0.024 C18.519,0.024 18.183,0.36 18.183,0.774 L18.183,15.238 C18.183,15.652 18.519,15.988 18.933,15.988 L18.933,15.988 Z" id="Fill-190" fill="#5B5B58" sketch:type="MSShapeGroup"></path>
    </g>
</svg>