<?xml version="1.0" encoding="UTF-8" standalone="no"?>
<svg width="45px" height="46px" viewBox="0 0 45 46" version="1.1" xmlns="http://www.w3.org/2000/svg" xmlns:xlink="http://www.w3.org/1999/xlink" xmlns:sketch="http://www.bohemiancoding.com/sketch/ns">
    <!-- Generator: Sketch 3.3.3 (12081) - http://www.bohemiancoding.com/sketch -->
    <title>Fill 152</title>
    <desc>Created with Sketch.</desc>
    <defs></defs>
    <g id="Icons" stroke="none" stroke-width="1" fill="none" fill-rule="evenodd" sketch:type="MSPage">
        <path d="M26.573,12.69 C25.628,12.69 24.858,13.46 24.858,14.406 C24.858,15.352 25.628,16.121 26.573,16.121 C27.519,16.121 28.289,15.352 28.289,14.406 C28.289,13.46 27.519,12.69 26.573,12.69 L26.573,12.69 Z M26.358,14.406 C26.358,14.287 26.455,14.19 26.573,14.19 C26.692,14.19 26.789,14.287 26.789,14.406 C26.789,14.644 26.358,14.646 26.358,14.406 L26.358,14.406 Z M42.01,6.76 L40.039,6.76 C39.625,6.76 39.289,7.096 39.289,7.51 C39.289,7.924 39.625,8.26 40.039,8.26 L41.986,8.26 C42.686,8.281 43.235,8.846 43.235,9.543 L43.235,31.456 C43.235,32.155 42.686,32.72 42.01,32.741 L37.2,32.741 C36.786,32.741 36.45,33.077 36.45,33.491 L36.45,42.887 L25.271,32.94 C25.134,32.819 24.957,32.752 24.773,32.751 L19.012,32.741 C19.012,32.741 19.012,32.741 19.011,32.741 C18.597,32.741 18.262,33.076 18.261,33.49 C18.26,33.904 18.596,34.241 19.009,34.241 L24.487,34.251 L36.701,45.118 C36.842,45.242 37.02,45.308 37.2,45.308 C37.304,45.308 37.408,45.286 37.508,45.241 C37.777,45.121 37.95,44.852 37.95,44.558 L37.95,34.241 L42.033,34.241 C43.549,34.193 44.735,32.971 44.735,31.456 L44.735,9.543 C44.735,8.03 43.549,6.808 42.01,6.76 L42.01,6.76 Z M11.67,12.69 C10.724,12.69 9.954,13.46 9.954,14.406 C9.954,15.352 10.724,16.121 11.67,16.121 C12.616,16.121 13.385,15.352 13.385,14.406 C13.385,13.46 12.616,12.69 11.67,12.69 L11.67,12.69 Z M11.454,14.406 C11.454,14.287 11.551,14.19 11.67,14.19 C11.789,14.19 11.885,14.287 11.885,14.406 C11.885,14.644 11.455,14.644 11.454,14.406 L11.454,14.406 Z M35.346,27.783 C36.883,27.783 38.134,26.533 38.134,24.998 L38.134,3.085 C38.134,1.549 36.883,0.3 35.346,0.3 L2.928,0.302 C1.412,0.35 0.225,1.571 0.225,3.085 L0.225,24.998 C0.225,26.514 1.412,27.736 2.951,27.782 L7.011,27.782 L7.011,38.099 C7.011,38.394 7.184,38.662 7.454,38.783 C7.553,38.827 7.657,38.849 7.761,38.849 C7.941,38.849 8.119,38.784 8.259,38.659 L20.474,27.792 L35.346,27.783 L35.346,27.783 Z M19.689,26.481 L8.511,36.428 L8.511,27.032 C8.511,26.618 8.175,26.282 7.761,26.282 L2.974,26.283 C2.273,26.262 1.725,25.697 1.725,24.998 L1.725,3.085 C1.725,2.387 2.273,1.823 2.951,1.802 L35.346,1.8 C36.057,1.8 36.634,2.376 36.634,3.085 L36.634,24.998 C36.634,25.706 36.057,26.283 35.346,26.283 L20.187,26.292 C20.004,26.292 19.826,26.359 19.689,26.481 L19.689,26.481 Z M19.121,12.69 C18.175,12.69 17.405,13.46 17.405,14.406 C17.405,15.352 18.175,16.121 19.121,16.121 C20.065,16.121 20.833,15.352 20.833,14.406 C20.833,13.46 20.065,12.69 19.121,12.69 L19.121,12.69 Z M18.905,14.406 C18.905,14.287 19.002,14.19 19.121,14.19 C19.237,14.19 19.333,14.287 19.333,14.406 C19.333,14.649 18.904,14.644 18.905,14.406 L18.905,14.406 Z" id="Fill-152" fill="#5B5B58" sketch:type="MSShapeGroup"></path>
    </g>
</svg>