<?xml version="1.0" encoding="UTF-8" standalone="no"?>
<svg width="41px" height="55px" viewBox="0 0 41 55" version="1.1" xmlns="http://www.w3.org/2000/svg" xmlns:xlink="http://www.w3.org/1999/xlink" xmlns:sketch="http://www.bohemiancoding.com/sketch/ns">
    <!-- Generator: Sketch 3.3.3 (12081) - http://www.bohemiancoding.com/sketch -->
    <title>Fill 38</title>
    <desc>Created with Sketch.</desc>
    <defs></defs>
    <g id="Icons" stroke="none" stroke-width="1" fill="none" fill-rule="evenodd" sketch:type="MSPage">
        <path d="M21.752,15.138 C22.179,15.583 22.582,16.004 22.759,16.461 C23.252,17.791 23.394,19.74 22.172,20.857 C21.866,21.137 21.845,21.611 22.124,21.917 C22.272,22.079 22.475,22.161 22.678,22.161 C22.858,22.161 23.04,22.097 23.184,21.965 C24.954,20.347 24.852,17.791 24.162,15.93 C23.874,15.184 23.322,14.608 22.835,14.1 C22.43,13.677 22.047,13.276 21.889,12.864 C21.433,11.666 22.589,10.208 23.908,8.811 C24.192,8.51 24.178,8.034 23.877,7.75 C23.576,7.466 23.101,7.48 22.817,7.781 C21.704,8.961 19.633,11.156 20.488,13.399 C20.754,14.095 21.261,14.625 21.752,15.138 L21.752,15.138 Z M9.744,15.364 C10.071,15.79 10.38,16.192 10.52,16.636 C10.959,18.064 11.009,19.971 10.126,21.01 C9.857,21.325 9.896,21.798 10.211,22.066 C10.353,22.186 10.525,22.245 10.697,22.245 C10.909,22.245 11.121,22.155 11.269,21.98 C12.604,20.41 12.498,17.962 11.952,16.189 C11.731,15.489 11.307,14.938 10.934,14.451 C10.617,14.039 10.318,13.649 10.189,13.238 C9.767,11.858 11.019,10.117 11.691,9.181 C11.933,8.845 11.856,8.376 11.52,8.134 C11.186,7.895 10.716,7.969 10.474,8.306 C9.649,9.452 8.115,11.587 8.756,13.682 C8.965,14.352 9.361,14.866 9.744,15.364 L9.744,15.364 Z M15.979,10.398 C15.623,11.192 15.254,12.013 15.072,13.048 C14.608,15.741 14.564,19.445 15.833,21.764 C15.97,22.013 16.227,22.153 16.492,22.153 C16.614,22.153 16.737,22.124 16.851,22.061 C17.215,21.862 17.348,21.406 17.149,21.043 C16.064,19.061 16.149,15.635 16.55,13.305 C16.699,12.457 17.014,11.756 17.348,11.014 C17.696,10.237 18.057,9.435 18.222,8.459 C18.766,5.367 17.249,2.145 16.434,0.414 C16.257,0.039 15.81,-0.123 15.436,0.055 C15.061,0.231 14.9,0.678 15.076,1.053 C15.821,2.634 17.206,5.576 16.743,8.204 C16.61,8.995 16.304,9.677 15.979,10.398 L15.979,10.398 Z M5.635,52.56 L5.638,52.56 L27.964,52.542 C30.605,52.542 32.758,50.385 32.764,47.731 L32.754,24.681 C32.754,24.267 32.418,23.931 32.004,23.931 L1.568,23.931 C1.369,23.931 1.178,24.01 1.038,24.15 C0.897,24.291 0.818,24.482 0.818,24.681 L0.828,47.745 C0.822,50.393 2.979,52.553 5.635,52.56 L5.635,52.56 Z M31.255,25.431 L31.264,47.729 C31.26,49.557 29.78,51.042 27.953,51.042 L5.639,51.06 C3.809,51.055 2.324,49.569 2.328,47.747 L2.318,25.431 L31.255,25.431 L31.255,25.431 Z M40.828,29.153 C40.739,27.382 39.3,26.994 38.579,26.801 L33.958,25.752 C33.553,25.658 33.153,25.914 33.061,26.317 C32.969,26.722 33.223,27.123 33.626,27.215 L38.218,28.257 C39.094,28.492 39.302,28.674 39.329,29.19 L39.33,37.63 C39.329,38.076 39.182,38.258 38.228,38.567 L33.665,39.342 C33.257,39.411 32.982,39.798 33.052,40.206 C33.114,40.572 33.431,40.831 33.79,40.831 C33.831,40.831 33.874,40.828 33.916,40.82 L38.532,40.037 C38.567,40.031 38.602,40.023 38.635,40.012 C39.4,39.768 40.825,39.311 40.83,37.632 L40.828,29.153 L40.828,29.153 Z M32.383,53.308 L32.382,53.308 L1.587,53.327 C1.173,53.327 0.837,53.663 0.838,54.077 C0.838,54.491 1.174,54.827 1.588,54.827 L32.383,54.808 C32.797,54.808 33.133,54.472 33.133,54.058 C33.132,53.644 32.797,53.308 32.383,53.308 L32.383,53.308 Z" id="Fill-38" fill="#5B5B58" sketch:type="MSShapeGroup"></path>
    </g>
</svg>