<?xml version="1.0" encoding="UTF-8" standalone="no"?>
<svg width="36px" height="44px" viewBox="0 0 36 44" version="1.1" xmlns="http://www.w3.org/2000/svg" xmlns:xlink="http://www.w3.org/1999/xlink" xmlns:sketch="http://www.bohemiancoding.com/sketch/ns">
    <!-- Generator: Sketch 3.3.3 (12081) - http://www.bohemiancoding.com/sketch -->
    <title>Fill 58</title>
    <desc>Created with Sketch.</desc>
    <defs></defs>
    <g id="Icons" stroke="none" stroke-width="1" fill="none" fill-rule="evenodd" sketch:type="MSPage">
        <g id="outline" sketch:type="MSLayerGroup" transform="translate(-651.000000, -850.000000)" fill="#5B5B58">
            <path d="M686.018,852.062 C685.858,851.92 685.652,851.852 685.433,851.877 C685.072,851.919 677.337,852.819 673.48,854.21 C673.4,853.661 673.193,853.01 672.708,852.41 C670.512,849.685 664.516,850.217 655.029,854.044 C654.745,854.158 654.56,854.434 654.56,854.739 L654.56,874.977 C654.56,875.238 654.695,875.48 654.917,875.617 C655.141,875.753 655.416,875.764 655.649,875.646 C655.728,875.605 663.662,871.605 668.415,871.605 C669.693,871.605 670.574,871.896 671.031,872.471 C671.512,873.07 671.6,874.061 671.296,875.416 C671.236,875.678 671.322,875.951 671.518,876.133 C671.658,876.262 671.841,876.331 672.027,876.331 C672.102,876.331 672.178,876.32 672.25,876.297 C672.349,876.267 681.994,873.261 684.959,873.261 C685.184,873.261 685.303,873.279 685.353,873.291 C685.572,873.342 685.808,873.288 685.987,873.145 C686.166,873.003 686.269,872.788 686.269,872.56 L686.269,852.622 C686.269,852.408 686.179,852.204 686.018,852.062 L686.018,852.062 Z M684.769,871.764 C682.066,871.852 675.599,873.719 672.951,874.515 C673.046,873.275 672.797,872.275 672.203,871.534 C671.445,870.586 670.172,870.105 668.415,870.105 C664.357,870.105 658.477,872.648 656.06,873.781 L656.06,855.247 C661.171,853.219 665.18,852.19 667.98,852.19 C669.687,852.19 670.914,852.588 671.531,853.339 C672.194,854.147 671.998,855.178 671.996,855.183 C671.936,855.466 672.044,855.76 672.274,855.935 C672.504,856.111 672.814,856.14 673.074,856.008 C675.516,854.75 682.375,853.779 684.769,853.471 L684.769,871.764 L684.769,871.764 Z M652.744,850.364 C652.33,850.364 651.994,850.7 651.994,851.114 L651.994,892.767 C651.994,893.181 652.33,893.517 652.744,893.517 C653.158,893.517 653.494,893.181 653.494,892.767 L653.494,851.114 C653.494,850.7 653.158,850.364 652.744,850.364 L652.744,850.364 Z" id="Fill-58" sketch:type="MSShapeGroup"></path>
        </g>
    </g>
</svg>