<?xml version="1.0" encoding="UTF-8" standalone="no"?>
<svg width="38px" height="24px" viewBox="0 0 38 24" version="1.1" xmlns="http://www.w3.org/2000/svg" xmlns:xlink="http://www.w3.org/1999/xlink" xmlns:sketch="http://www.bohemiancoding.com/sketch/ns">
    <!-- Generator: Sketch 3.4.2 (15857) - http://www.bohemiancoding.com/sketch -->
    <title>hamburger</title>
    <desc>Created with Sketch.</desc>
    <defs></defs>
    <g id="Icons" stroke="none" stroke-width="1" fill="none" fill-rule="evenodd" sketch:type="MSPage">
        <path d="M36.4564752,11.1213865 L0.763495466,11.1213865 C0.402757883,11.1213865 0.109985352,11.5299826 0.109985352,12.0334315 C0.109985352,12.5368803 0.402757883,12.9454765 0.763495466,12.9454765 L36.4564752,12.9454765 C36.8163415,12.9454765 37.1099854,12.5368803 37.1099854,12.0334315 C37.1099854,11.5299826 36.8163415,11.1213865 36.4564752,11.1213865 L36.4564752,11.1213865 Z M36.4564752,22.0659265 L0.763495466,22.0659265 C0.402757883,22.0659265 0.109985352,22.4745227 0.109985352,22.9779716 C0.109985352,23.4814204 0.402757883,23.8900166 0.763495466,23.8900166 L36.4564752,23.8900166 C36.8163415,23.8900166 37.1099854,23.4814204 37.1099854,22.9779716 C37.1099854,22.4745227 36.8163415,22.0659265 36.4564752,22.0659265 L36.4564752,22.0659265 Z M36.4564752,0.0800170898 L0.763495466,0.0800170898 C0.402757883,0.0800170898 0.109985352,0.488613252 0.109985352,0.992062095 C0.109985352,1.49551094 0.402757883,1.9041071 0.763495466,1.9041071 L36.4564752,1.9041071 C36.8163415,1.9041071 37.1099854,1.49551094 37.1099854,0.992062095 C37.1099854,0.488613252 36.8163415,0.0800170898 36.4564752,0.0800170898 L36.4564752,0.0800170898 Z" id="hamburger" fill="#5B5B58" sketch:type="MSShapeGroup"></path>
    </g>
</svg>