<?xml version="1.0" encoding="UTF-8" standalone="no"?>
<svg width="47px" height="45px" viewBox="0 0 47 45" version="1.1" xmlns="http://www.w3.org/2000/svg" xmlns:xlink="http://www.w3.org/1999/xlink" xmlns:sketch="http://www.bohemiancoding.com/sketch/ns">
    <!-- Generator: Sketch 3.3.3 (12081) - http://www.bohemiancoding.com/sketch -->
    <title>Fill 183</title>
    <desc>Created with Sketch.</desc>
    <defs></defs>
    <g id="Icons" stroke="none" stroke-width="1" fill="none" fill-rule="evenodd" sketch:type="MSPage">
        <path d="M38.441,21.96 C38.027,21.96 37.691,22.296 37.691,22.71 L37.691,39.261 C37.691,41.08 36.211,42.56 34.392,42.56 L28.565,42.56 L28.565,31.074 C28.565,30.66 28.229,30.324 27.815,30.324 L19.623,30.324 C19.209,30.324 18.873,30.66 18.873,31.074 L18.873,42.56 L13.044,42.56 C11.226,42.56 9.747,41.08 9.747,39.261 L9.747,22.71 C9.747,22.296 9.411,21.96 8.997,21.96 C8.583,21.96 8.247,22.296 8.247,22.71 L8.247,39.261 C8.247,41.907 10.399,44.06 13.044,44.06 L34.392,44.06 C37.038,44.06 39.191,41.907 39.191,39.261 L39.191,22.71 C39.191,22.296 38.855,21.96 38.441,21.96 L38.441,21.96 Z M20.373,31.824 L27.065,31.824 L27.065,42.559 L20.373,42.559 L20.373,31.824 Z M45.852,16.409 L40.431,12.5 C39.722,11.986 39.099,10.772 39.099,9.902 L39.099,3.474 C39.099,1.945 37.855,0.701 36.327,0.701 L34.424,0.701 C32.897,0.701 31.655,1.945 31.655,3.474 L31.655,5.61 C31.655,5.884 31.591,6.008 31.584,6.018 C31.561,6.018 31.432,6.01 31.2,5.842 L25.594,1.797 C24.914,1.304 24.365,0.906 24.247,0.815 C24.102,0.69 23.903,0.606 23.718,0.612 C23.543,0.602 23.339,0.687 23.194,0.813 C23.065,0.913 22.386,1.405 21.586,1.985 L1.588,16.409 C0.988,16.843 0.593,17.485 0.475,18.219 C0.357,18.952 0.531,19.685 0.962,20.279 L1.723,21.339 C2.235,22.051 3.052,22.459 3.964,22.459 L3.965,22.459 C4.061,22.459 4.158,22.454 4.255,22.445 C4.387,22.432 4.513,22.385 4.621,22.307 L23.719,8.528 L42.82,22.307 C42.928,22.385 43.054,22.432 43.186,22.445 C43.283,22.454 43.38,22.459 43.477,22.459 C44.392,22.459 45.208,22.05 45.712,21.34 L46.477,20.28 C47.372,19.039 47.091,17.303 45.852,16.409 L45.852,16.409 Z M45.261,19.402 L44.493,20.467 C44.277,20.769 43.922,20.948 43.515,20.959 L24.164,6.999 L24.163,7 C23.912,6.817 23.522,6.81 23.262,7.009 L3.926,20.959 C3.518,20.948 3.161,20.769 2.941,20.463 L2.179,19.401 C1.981,19.129 1.902,18.794 1.956,18.457 C2.01,18.119 2.191,17.824 2.466,17.626 L22.466,3.201 C23.055,2.773 23.449,2.487 23.718,2.287 C23.946,2.455 24.265,2.685 24.713,3.011 L30.323,7.06 C30.746,7.363 31.17,7.518 31.584,7.518 C32.366,7.518 33.155,6.928 33.155,5.61 L33.155,3.474 C33.155,2.772 33.724,2.201 34.424,2.201 L36.327,2.201 C37.028,2.201 37.599,2.772 37.599,3.474 L37.599,9.902 C37.599,11.248 38.457,12.923 39.553,13.716 L44.975,17.626 C45.543,18.036 45.671,18.833 45.261,19.402 L45.261,19.402 Z" id="Fill-183" fill="#5B5B58" sketch:type="MSShapeGroup"></path>
    </g>
</svg>