<?xml version="1.0" encoding="UTF-8" standalone="no"?>
<svg width="26px" height="46px" viewBox="0 0 26 46" version="1.1" xmlns="http://www.w3.org/2000/svg" xmlns:xlink="http://www.w3.org/1999/xlink" xmlns:sketch="http://www.bohemiancoding.com/sketch/ns">
    <!-- Generator: Sketch 3.3.3 (12081) - http://www.bohemiancoding.com/sketch -->
    <title>Fill 147</title>
    <desc>Created with Sketch.</desc>
    <defs></defs>
    <g id="Icons" stroke="none" stroke-width="1" fill="none" fill-rule="evenodd" sketch:type="MSPage">
        <g id="outline" sketch:type="MSLayerGroup" transform="translate(-807.000000, -326.000000)" fill="#5B5B58">
            <path d="M823.674,341.14 C822.662,340.289 821.586,339.858 820.475,339.858 C817.277,339.858 814.154,343.494 811.255,347.424 C811.035,347.722 811.066,348.136 811.326,348.397 C811.587,348.662 812.002,348.692 812.301,348.475 C813.863,347.335 815.858,346.116 816.841,345.8 C816.262,347.416 813.949,352.024 811.902,356.104 C809.495,360.897 808.018,363.871 807.779,364.739 C807.416,366.067 807.57,368.212 808.767,369.779 C809.666,370.959 810.988,371.583 812.586,371.583 C815.129,371.583 818.34,370.014 822.131,366.917 C822.396,366.698 822.48,366.327 822.334,366.016 C822.187,365.705 821.85,365.533 821.51,365.6 C821.49,365.604 819.447,366.004 817.318,366.004 C817.207,366.004 817.066,365.991 817.031,365.927 C816.916,365.728 816.533,364.42 820.201,358.135 C823.832,351.912 827.506,344.357 823.674,341.14 L823.674,341.14 Z M815.73,366.674 C815.908,366.984 816.352,367.504 817.318,367.504 C817.883,367.504 818.437,367.479 818.953,367.44 C815.854,369.581 813.816,370.083 812.586,370.083 C811.458,370.083 810.574,369.675 809.959,368.869 C809.12,367.77 808.955,366.125 809.227,365.135 C809.441,364.348 811.373,360.499 813.242,356.776 C815.473,352.332 817.781,347.735 818.309,346.146 C818.385,345.918 818.613,345.227 818.225,344.69 C818.1,344.514 817.8,344.22 817.222,344.22 C816.701,344.22 815.967,344.496 815.188,344.887 C816.971,342.873 818.809,341.358 820.475,341.358 C821.233,341.358 821.965,341.662 822.709,342.288 C826.064,345.106 820.678,354.344 818.907,357.379 C815.102,363.896 815.211,365.769 815.73,366.674 L815.73,366.674 Z M826.453,326.023 C822.912,326.023 820.031,328.901 820.031,332.439 C820.031,335.977 822.912,338.854 826.453,338.854 C829.987,338.854 832.863,335.977 832.863,332.439 C832.863,328.901 829.987,326.023 826.453,326.023 L826.453,326.023 Z M826.453,337.354 C823.738,337.354 821.531,335.149 821.531,332.439 C821.531,329.728 823.738,327.523 826.453,327.523 C829.16,327.523 831.363,329.728 831.363,332.439 C831.363,335.149 829.16,337.354 826.453,337.354 L826.453,337.354 Z" id="Fill-147" sketch:type="MSShapeGroup"></path>
        </g>
    </g>
</svg>