<?xml version="1.0" encoding="UTF-8" standalone="no"?>
<svg width="41px" height="40px" viewBox="0 0 41 40" version="1.1" xmlns="http://www.w3.org/2000/svg" xmlns:xlink="http://www.w3.org/1999/xlink" xmlns:sketch="http://www.bohemiancoding.com/sketch/ns">
    <!-- Generator: Sketch 3.3.3 (12081) - http://www.bohemiancoding.com/sketch -->
    <title>Fill 61</title>
    <desc>Created with Sketch.</desc>
    <defs></defs>
    <g id="Icons" stroke="none" stroke-width="1" fill="none" fill-rule="evenodd" sketch:type="MSPage">
        <g id="outline" sketch:type="MSLayerGroup" transform="translate(-422.000000, -852.000000)" fill="#5B5B58">
            <path d="M462.274,857.31 L453.129,852.693 L452.151,852.202 C451.941,852.099 451.694,852.098 451.483,852.203 L442.478,856.747 L434.512,852.723 L433.473,852.202 C433.262,852.099 433.016,852.098 432.805,852.203 L422.685,857.31 C422.433,857.438 422.273,857.696 422.273,857.979 L422.273,891.007 C422.273,891.268 422.408,891.509 422.631,891.645 C422.75,891.72 422.887,891.757 423.023,891.757 C423.139,891.757 423.255,891.73 423.362,891.676 L433.14,886.735 L442.139,891.283 C442.352,891.39 442.603,891.392 442.817,891.283 L451.818,886.735 L461.598,891.677 C461.833,891.794 462.108,891.783 462.329,891.645 C462.551,891.509 462.686,891.268 462.686,891.007 L462.686,857.979 C462.686,857.696 462.527,857.438 462.274,857.31 L462.274,857.31 Z M432.395,885.432 L423.773,889.787 L423.773,858.44 L432.395,854.085 L432.395,885.432 L432.395,885.432 Z M441.728,889.394 L433.895,885.437 L433.895,854.094 L441.728,858.049 L441.728,889.394 L441.728,889.394 Z M451.107,885.413 L443.228,889.394 L443.228,858.048 L451.107,854.067 L451.107,885.413 L451.107,885.413 Z M461.186,889.788 L452.607,885.453 L452.607,854.11 L461.186,858.441 L461.186,889.788 L461.186,889.788 Z" id="Fill-61" sketch:type="MSShapeGroup"></path>
        </g>
    </g>
</svg>