<?xml version="1.0" encoding="UTF-8" standalone="no"?>
<svg width="44px" height="42px" viewBox="0 0 44 42" version="1.1" xmlns="http://www.w3.org/2000/svg" xmlns:xlink="http://www.w3.org/1999/xlink" xmlns:sketch="http://www.bohemiancoding.com/sketch/ns">
    <!-- Generator: Sketch 3.3.3 (12081) - http://www.bohemiancoding.com/sketch -->
    <title>Fill 62</title>
    <desc>Created with Sketch.</desc>
    <defs></defs>
    <g id="Icons" stroke="none" stroke-width="1" fill="none" fill-rule="evenodd" sketch:type="MSPage">
        <path d="M26.514,9.642 C26.514,7.11 24.455,5.052 21.925,5.052 C19.395,5.052 17.337,7.11 17.337,9.642 C17.337,12.17 19.395,14.227 21.925,14.227 C24.455,14.227 26.514,12.17 26.514,9.642 L26.514,9.642 Z M18.837,9.642 C18.837,7.938 20.223,6.552 21.925,6.552 C23.629,6.552 25.014,7.938 25.014,9.642 C25.014,11.343 23.629,12.727 21.925,12.727 C20.223,12.727 18.837,11.343 18.837,9.642 L18.837,9.642 Z M21.925,27.878 C23.928,27.878 32.915,16.596 32.915,11.019 C32.915,4.957 27.984,0.026 21.925,0.026 C15.866,0.026 10.935,4.957 10.935,11.019 C10.935,16.596 19.923,27.878 21.925,27.878 L21.925,27.878 Z M21.925,1.526 C27.158,1.526 31.415,5.784 31.415,11.019 C31.415,15.931 23.687,25.14 21.925,26.31 C20.162,25.14 12.435,15.931 12.435,11.019 C12.435,5.784 16.692,1.526 21.925,1.526 L21.925,1.526 Z M39.923,9.614 C39.891,9.316 39.685,9.065 39.399,8.977 L35.415,7.73 C35.019,7.607 34.598,7.828 34.475,8.223 C34.352,8.618 34.571,9.038 34.967,9.162 L38.482,10.261 L41.55,39.413 L32.882,37.13 L32.093,20.955 C32.073,20.542 31.73,20.215 31.307,20.264 C30.893,20.284 30.574,20.677 30.595,21.091 L31.381,37.149 L22.096,39.596 L22.096,31.903 C22.096,31.489 21.759,31.153 21.346,31.153 C20.932,31.153 20.596,31.489 20.596,31.903 L20.596,39.288 L11.93,37.006 L12.728,21.821 C12.75,21.408 12.433,21.055 12.019,21.033 C11.594,20.995 11.252,21.329 11.23,21.743 L10.412,37.277 L2.306,39.413 L5.375,10.262 L8.863,9.172 C9.26,9.049 9.479,8.628 9.355,8.232 C9.232,7.837 8.816,7.615 8.416,7.74 L4.457,8.977 C4.171,9.065 3.966,9.316 3.934,9.614 L0.699,40.337 C0.675,40.582 0.77,40.824 0.958,40.984 C1.145,41.145 1.399,41.204 1.637,41.141 L10.486,38.81 C10.612,39.004 10.815,39.145 11.064,39.158 C11.078,39.159 11.091,39.159 11.104,39.159 C11.472,39.159 11.771,38.889 11.832,38.531 L20.596,40.84 L20.596,41.104 C20.596,41.519 20.932,41.854 21.346,41.854 C21.746,41.854 22.068,41.537 22.088,41.141 C22.099,41.139 22.108,41.144 22.119,41.141 L31.757,38.602 C31.877,38.712 32.014,38.796 32.168,38.796 L32.205,38.796 C32.354,38.796 32.483,38.714 32.597,38.606 L42.219,41.141 C42.281,41.157 42.346,41.165 42.409,41.165 C42.586,41.165 42.76,41.102 42.897,40.984 C43.084,40.824 43.181,40.582 43.155,40.337 L39.923,9.614 L39.923,9.614 Z" id="Fill-62" fill="#5B5B58" sketch:type="MSShapeGroup"></path>
    </g>
</svg>