<?xml version="1.0" encoding="UTF-8" standalone="no"?>
<svg width="29px" height="51px" viewBox="0 0 29 51" version="1.1" xmlns="http://www.w3.org/2000/svg" xmlns:xlink="http://www.w3.org/1999/xlink" xmlns:sketch="http://www.bohemiancoding.com/sketch/ns">
    <!-- Generator: Sketch 3.3.3 (12081) - http://www.bohemiancoding.com/sketch -->
    <title>Fill 200</title>
    <desc>Created with Sketch.</desc>
    <defs></defs>
    <g id="Icons" stroke="none" stroke-width="1" fill="none" fill-rule="evenodd" sketch:type="MSPage">
        <path d="M5.324,19.977 C5.738,19.977 6.074,19.641 6.074,19.227 L6.074,16.019 L10.789,16.019 C11.203,16.019 11.539,15.683 11.539,15.269 C11.539,14.854 11.203,14.519 10.789,14.519 L6.074,14.519 L6.074,13.168 L10.789,13.168 C11.203,13.168 11.539,12.832 11.539,12.418 C11.539,12.004 11.203,11.668 10.789,11.668 L6.074,11.668 L6.074,11.07 C6.074,10.816 6.091,10.566 6.112,10.317 L10.789,10.317 C11.203,10.317 11.539,9.981 11.539,9.567 C11.539,9.153 11.203,8.817 10.789,8.817 L6.379,8.817 C7.366,5.127 10.709,2.398 14.682,2.398 C18.654,2.398 21.998,5.127 22.986,8.817 L18.439,8.817 C18.024,8.817 17.689,9.153 17.689,9.567 C17.689,9.981 18.024,10.317 18.439,10.317 L23.252,10.317 C23.273,10.566 23.291,10.816 23.291,11.07 L23.291,11.668 L18.391,11.668 C17.977,11.668 17.641,12.004 17.641,12.418 C17.641,12.832 17.977,13.168 18.391,13.168 L23.291,13.168 L23.291,14.519 L18.391,14.519 C17.977,14.519 17.641,14.854 17.641,15.269 C17.641,15.683 17.977,16.019 18.391,16.019 L23.291,16.019 L23.291,19.227 C23.291,19.641 23.627,19.977 24.041,19.977 C24.455,19.977 24.791,19.641 24.791,19.227 L24.791,11.07 C24.791,5.462 20.256,0.898 14.682,0.898 C9.107,0.898 4.574,5.462 4.574,11.07 L4.574,19.227 C4.574,19.641 4.91,19.977 5.324,19.977 L5.324,19.977 Z M7.174,21.289 C6.759,21.289 6.424,21.625 6.424,22.039 C6.424,22.453 6.759,22.789 7.174,22.789 L22.191,22.789 C22.605,22.789 22.941,22.453 22.941,22.039 C22.941,21.625 22.605,21.289 22.191,21.289 L7.174,21.289 L7.174,21.289 Z M28.745,28.433 L28.745,22.953 C28.745,21.453 27.525,20.233 26.027,20.233 C24.524,20.233 23.303,21.453 23.303,22.953 L23.305,28.379 C23.297,28.451 22,35.557 14.683,35.557 C7.359,35.557 6.059,28.49 6.057,28.433 L6.057,22.953 C6.057,21.453 4.837,20.233 3.338,20.233 C1.838,20.233 0.619,21.453 0.619,22.953 L0.619,28.433 C0.619,32.118 3.957,39.355 11.963,40.752 L11.963,45.397 L4.838,45.397 C3.338,45.397 2.119,46.618 2.119,48.118 C2.119,49.617 3.338,50.837 4.838,50.837 L24.527,50.837 C26.023,50.837 27.24,49.617 27.24,48.118 C27.24,46.618 26.023,45.397 24.527,45.397 L17.399,45.397 L17.399,40.752 C25.407,39.355 28.745,32.118 28.745,28.433 L28.745,28.433 Z M16.65,46.897 L24.527,46.897 C25.195,46.897 25.74,47.445 25.74,48.118 C25.74,48.79 25.195,49.337 24.527,49.337 L4.838,49.337 C4.166,49.337 3.619,48.79 3.619,48.118 C3.619,47.445 4.166,46.897 4.838,46.897 L12.712,46.897 C13.127,46.897 13.463,46.562 13.463,46.147 L13.463,40.107 C13.463,39.731 13.183,39.413 12.809,39.364 C5.348,38.39 2.119,31.653 2.119,28.433 L2.119,22.953 C2.119,22.28 2.666,21.733 3.338,21.733 C4.01,21.733 4.557,22.28 4.557,22.953 L4.557,28.443 C4.572,29.572 6.547,37.057 14.683,37.057 C22.666,37.057 24.803,29.457 24.803,28.433 L24.803,22.953 C24.803,22.28 25.352,21.733 26.027,21.733 C26.699,21.733 27.246,22.28 27.246,22.953 L27.246,28.433 C27.246,31.653 24.018,38.39 16.554,39.364 C16.18,39.413 15.899,39.731 15.899,40.107 L15.899,46.147 C15.899,46.562 16.236,46.897 16.65,46.897 L16.65,46.897 Z" id="Fill-200" fill="#5B5B58" sketch:type="MSShapeGroup"></path>
    </g>
</svg>