<svg xmlns="http://www.w3.org/2000/svg" xmlns:xlink="http://www.w3.org/1999/xlink" version="1.1" x="0px" y="0px" viewBox="0 0 50 62.5" style="enable-background:new 0 0 50 50;" xml:space="preserve"><g><path d="M17.9,35.3l7.1-7.1l7.1,7.1c0.9,0.9,2.4,0.9,3.3,0l0,0c0.9-0.9,0.9-2.4,0-3.3L28.3,25l7.1-7.1c0.9-0.9,0.9-2.4,0-3.3l0,0   c-0.9-0.9-2.4-0.9-3.3,0L25,21.7l-7.1-7.1c-0.9-0.9-2.4-0.9-3.3,0l0,0c-0.9,0.9-0.9,2.4,0,3.3l7.1,7.1l-7.1,7.1   c-0.9,0.9-0.9,2.4,0,3.3l0,0C15.6,36.2,17,36.2,17.9,35.3z"/></g><path d="M25,7.7c9.6,0,17.3,7.8,17.3,17.3S34.6,42.3,25,42.3S7.7,34.6,7.7,25S15.4,7.7,25,7.7 M25,3.7C13.2,3.7,3.7,13.2,3.7,25  S13.2,46.3,25,46.3S46.3,36.8,46.3,25S36.8,3.7,25,3.7L25,3.7z"/><text x="0" y="65" fill="#000000" font-size="5px" font-weight="bold" font-family="'Helvetica Neue', Helvetica, Arial-Unicode, Arial, Sans-serif">Created by Jevgeni Striganov</text><text x="0" y="70" fill="#000000" font-size="5px" font-weight="bold" font-family="'Helvetica Neue', Helvetica, Arial-Unicode, Arial, Sans-serif">from the Noun Project</text></svg>