<svg xmlns="http://www.w3.org/2000/svg" xmlns:xlink="http://www.w3.org/1999/xlink" version="1.1" viewBox="0 0 96 120" x="0px" y="0px"><path d="M48 4c24.256 0 44 19.74 44 44 0 24.256-19.744 44-44 44-24.26 0-44-19.744-44-44 0-24.26 19.74-44 44-44zM48 0c-26.508 0-48 21.492-48 48s21.492 48 48 48 48-21.492 48-48-21.492-48-48-48v0z" fill="#000000"/><path d="M30 68c-0.512 0-1.024-0.196-1.416-0.584-0.78-0.776-0.78-2.048 0-2.828l36-36c0.776-0.78 2.048-0.78 2.828 0 0.776 0.78 0.776 2.048 0 2.828l-36 36c-0.388 0.388-0.9 0.584-1.412 0.584z" fill="#000000"/><path d="M66 68c-0.512 0-1.024-0.196-1.416-0.584l-36-36c-0.78-0.78-0.78-2.048 0-2.828s2.048-0.78 2.828 0l36 36c0.776 0.78 0.776 2.052 0 2.828-0.388 0.388-0.9 0.584-1.412 0.584z" fill="#000000"/><text x="0" y="111" fill="#000000" font-size="5px" font-weight="bold" font-family="'Helvetica Neue', Helvetica, Arial-Unicode, Arial, Sans-serif">Created by iconsmind.com</text><text x="0" y="116" fill="#000000" font-size="5px" font-weight="bold" font-family="'Helvetica Neue', Helvetica, Arial-Unicode, Arial, Sans-serif">from the Noun Project</text></svg>