<svg xmlns="http://www.w3.org/2000/svg" xmlns:xlink="http://www.w3.org/1999/xlink" version="1.1" x="0px" y="0px" viewBox="0 0 100 125" enable-background="new 0 0 100 100" xml:space="preserve"><path d="M68.385,31.615c-0.391-0.391-1.023-0.391-1.414,0L50,48.586L33.029,31.615c-0.391-0.391-1.023-0.391-1.414,0  s-0.391,1.023,0,1.414L48.586,50L31.615,66.971c-0.391,0.391-0.391,1.023,0,1.414c0.195,0.195,0.451,0.293,0.707,0.293  s0.512-0.098,0.707-0.293L50,51.414l16.971,16.971c0.195,0.195,0.451,0.293,0.707,0.293s0.512-0.098,0.707-0.293  c0.391-0.391,0.391-1.023,0-1.414L51.414,50l16.971-16.971C68.775,32.639,68.775,32.006,68.385,31.615z"/><path d="M82,9H18c-4.962,0-9,4.038-9,9v64c0,4.962,4.038,9,9,9h64c4.962,0,9-4.038,9-9V18C91,13.038,86.962,9,82,9z M89,82  c0,3.86-3.14,7-7,7H18c-3.86,0-7-3.14-7-7V18c0-3.86,3.14-7,7-7h64c3.86,0,7,3.14,7,7V82z"/><text x="0" y="115" fill="#000000" font-size="5px" font-weight="bold" font-family="'Helvetica Neue', Helvetica, Arial-Unicode, Arial, Sans-serif">Created by Ema Dimitrova</text><text x="0" y="120" fill="#000000" font-size="5px" font-weight="bold" font-family="'Helvetica Neue', Helvetica, Arial-Unicode, Arial, Sans-serif">from the Noun Project</text></svg>