<svg xmlns="http://www.w3.org/2000/svg" xmlns:xlink="http://www.w3.org/1999/xlink" version="1.1" x="0px" y="0px" viewBox="0 0 100 125" enable-background="new 0 0 100 100" xml:space="preserve"><g><path d="M22.985,22.238c-0.056,0-0.113,0-0.141,0.028c-0.563,0.112-0.816,0.927-0.394,1.32l26.424,26.42L22.45,76.37   c-0.366,0.281-0.394,0.871-0.084,1.18s0.9,0.28,1.182-0.084L50,51.073l26.452,26.393c0.282,0.364,0.845,0.393,1.183,0.084   c0.31-0.309,0.281-0.898-0.085-1.18L51.098,50.006l26.452-26.42c0.479-0.478-0.056-1.46-0.703-1.32   c-0.169,0.028-0.31,0.112-0.395,0.225L50,48.855L23.548,22.491C23.407,22.322,23.182,22.238,22.985,22.238L22.985,22.238z"/></g><text x="0" y="115" fill="#000000" font-size="5px" font-weight="bold" font-family="'Helvetica Neue', Helvetica, Arial-Unicode, Arial, Sans-serif">Created by artworkbean</text><text x="0" y="120" fill="#000000" font-size="5px" font-weight="bold" font-family="'Helvetica Neue', Helvetica, Arial-Unicode, Arial, Sans-serif">from the Noun Project</text></svg>