<?xml version="1.0" encoding="UTF-8" standalone="no"?>
<svg width="40px" height="49px" viewBox="0 0 40 49" version="1.1" xmlns="http://www.w3.org/2000/svg" xmlns:xlink="http://www.w3.org/1999/xlink" xmlns:sketch="http://www.bohemiancoding.com/sketch/ns">
    <!-- Generator: Sketch 3.3.3 (12081) - http://www.bohemiancoding.com/sketch -->
    <title>Fill 32</title>
    <desc>Created with Sketch.</desc>
    <defs></defs>
    <g id="Icons" stroke="none" stroke-width="1" fill="none" fill-rule="evenodd" sketch:type="MSPage">
        <path d="M20.01,5.987 C18.87,5.987 17.945,6.913 17.945,8.052 C17.945,9.189 18.87,10.114 20.01,10.114 C21.148,10.114 22.074,9.189 22.074,8.052 C22.074,6.913 21.148,5.987 20.01,5.987 L20.01,5.987 Z M21.941,6.124 C23.611,6.124 24.971,4.766 24.971,3.097 C24.971,1.427 23.611,0.067 21.941,0.067 C20.271,0.067 18.912,1.427 18.912,3.097 C18.912,4.766 20.271,6.124 21.941,6.124 L21.941,6.124 Z M16.09,7.472 C17.541,7.472 18.723,6.291 18.723,4.841 C18.723,3.389 17.541,2.208 16.09,2.208 C14.639,2.208 13.459,3.389 13.459,4.841 C13.459,6.291 14.639,7.472 16.09,7.472 L16.09,7.472 Z M38.728,44.568 L32.252,34.259 C32.238,34.204 32.234,34.149 32.207,34.098 C32.154,33.992 32.078,33.91 31.99,33.843 L28.451,28.209 C27.482,26.668 26.664,23.827 26.664,22.007 L26.664,13.259 L25.164,13.259 L25.164,22.007 C25.164,24.132 26.05,27.207 27.182,29.008 L30.396,34.124 C26.769,35.602 23.143,34.897 19.316,34.154 C16.373,33.582 13.341,32.998 10.278,33.473 L13.083,29.008 C14.215,27.207 15.102,24.132 15.102,22.007 L15.102,13.259 L13.601,13.259 L13.601,22.007 C13.601,23.827 12.783,26.668 11.814,28.209 L1.533,44.569 C0.878,45.617 0.766,46.646 1.221,47.469 C1.676,48.291 2.605,48.743 3.841,48.743 L36.422,48.743 C37.656,48.743 38.587,48.291 39.042,47.469 C39.496,46.646 39.385,45.617 38.728,44.568 L38.728,44.568 Z M37.73,46.742 C37.554,47.06 37.076,47.243 36.422,47.243 L3.841,47.243 C3.186,47.243 2.709,47.06 2.533,46.742 C2.357,46.424 2.455,45.923 2.804,45.367 L9.211,35.172 C9.293,35.18 9.377,35.182 9.461,35.16 C12.598,34.376 15.725,34.983 19.031,35.627 C21.227,36.054 23.461,36.488 25.719,36.488 C27.535,36.488 29.365,36.203 31.203,35.411 L37.457,45.366 C37.807,45.923 37.906,46.424 37.73,46.742 L37.73,46.742 Z M18.105,30.524 C18.105,31.553 18.941,32.39 19.971,32.39 C20.998,32.39 21.836,31.553 21.836,30.524 C21.836,29.496 20.998,28.659 19.971,28.659 C18.941,28.659 18.105,29.496 18.105,30.524 L18.105,30.524 Z M11.2,13.134 L29.062,13.134 L29.062,11.634 L11.2,11.634 L11.2,13.134 Z" id="Fill-32" fill="#5B5B58" sketch:type="MSShapeGroup"></path>
    </g>
</svg>