<?xml version="1.0" encoding="UTF-8" standalone="no"?>
<svg width="41px" height="42px" viewBox="0 0 41 42" version="1.1" xmlns="http://www.w3.org/2000/svg" xmlns:xlink="http://www.w3.org/1999/xlink" xmlns:sketch="http://www.bohemiancoding.com/sketch/ns">
    <!-- Generator: Sketch 3.3.3 (12081) - http://www.bohemiancoding.com/sketch -->
    <title>Fill 106</title>
    <desc>Created with Sketch.</desc>
    <defs></defs>
    <g id="Icons" stroke="none" stroke-width="1" fill="none" fill-rule="evenodd" sketch:type="MSPage">
        <path d="M15.141,7.253 L19.602,2.808 L19.604,19.285 C19.604,19.699 19.939,20.035 20.354,20.035 C20.767,20.035 21.104,19.699 21.104,19.285 L21.101,2.828 L25.533,7.261 C25.68,7.407 25.871,7.48 26.065,7.48 C26.256,7.48 26.447,7.407 26.594,7.261 C26.887,6.968 26.887,6.493 26.594,6.2 L20.874,0.479 C20.582,0.188 20.108,0.186 19.814,0.478 L14.082,6.19 C13.787,6.483 13.787,6.958 14.08,7.251 C14.371,7.545 14.846,7.546 15.141,7.253 L15.141,7.253 Z M40.404,21.604 L33.742,12.266 C33.602,12.068 33.375,11.951 33.133,11.951 L23.653,11.951 C23.24,11.951 22.903,12.287 22.903,12.701 C22.903,13.115 23.24,13.451 23.653,13.451 L32.745,13.451 L38.371,21.337 L28.528,21.337 C27.433,21.337 26.357,22.168 26.076,23.231 L25.393,25.858 C25.287,26.263 24.81,26.632 24.393,26.632 L16.283,26.632 C15.865,26.632 15.389,26.264 15.283,25.858 L14.6,23.233 C14.324,22.17 13.248,21.337 12.148,21.337 L2.312,21.337 L7.986,13.451 L17.023,13.451 C17.437,13.451 17.773,13.115 17.773,12.701 C17.773,12.287 17.437,11.951 17.023,11.951 L7.602,11.951 C7.359,11.951 7.133,12.067 6.992,12.264 L0.274,21.602 C0.183,21.729 0.133,21.883 0.133,22.04 L0.133,41.001 C0.133,41.415 0.469,41.751 0.883,41.751 L39.795,41.751 C40.209,41.751 40.545,41.415 40.545,41.001 L40.545,22.04 C40.545,21.884 40.496,21.731 40.404,21.604 L40.404,21.604 Z M39.045,40.251 L1.633,40.251 L1.633,22.837 L12.148,22.837 C12.566,22.837 13.043,23.204 13.146,23.61 L13.832,26.235 C14.106,27.299 15.183,28.132 16.283,28.132 L24.393,28.132 C25.491,28.132 26.568,27.299 26.845,26.236 L27.528,23.611 C27.635,23.206 28.112,22.837 28.528,22.837 L39.045,22.837 L39.045,40.251 L39.045,40.251 Z" id="Fill-106" fill="#5B5B58" sketch:type="MSShapeGroup"></path>
    </g>
</svg>