<?xml version="1.0" encoding="UTF-8" standalone="no"?>
<svg width="39px" height="45px" viewBox="0 0 39 45" version="1.1" xmlns="http://www.w3.org/2000/svg" xmlns:xlink="http://www.w3.org/1999/xlink" xmlns:sketch="http://www.bohemiancoding.com/sketch/ns">
    <!-- Generator: Sketch 3.3.3 (12081) - http://www.bohemiancoding.com/sketch -->
    <title>Fill 30</title>
    <desc>Created with Sketch.</desc>
    <defs></defs>
    <g id="Icons" stroke="none" stroke-width="1" fill="none" fill-rule="evenodd" sketch:type="MSPage">
        <path d="M17.805,19.907 L19.021,19.907 C19.521,19.907 19.929,20.315 19.929,20.817 L19.929,24.935 C19.929,25.349 20.266,25.685 20.68,25.685 C21.094,25.685 21.429,25.349 21.429,24.935 L21.429,20.817 C21.429,19.488 20.35,18.407 19.021,18.407 L17.697,18.407 C17.66,18.407 17.625,18.41 17.59,18.415 L4.053,18.415 C2.672,18.415 1.551,17.292 1.551,15.911 L1.551,10.472 C1.551,9.095 2.672,7.974 4.053,7.974 L4.783,7.974 C5.197,7.974 5.533,7.638 5.533,7.224 C5.533,6.81 5.197,6.474 4.783,6.474 L4.053,6.474 C1.846,6.474 0.05,8.268 0.05,10.472 L0.05,15.911 C0.05,18.119 1.846,19.915 4.053,19.915 L17.697,19.915 C17.733,19.915 17.769,19.912 17.805,19.907 L17.805,19.907 Z M32.969,0.216 L11.317,0.216 C8.314,0.216 5.87,2.66 5.87,5.665 L5.87,10.187 C5.87,13.191 8.314,15.636 11.317,15.636 L32.969,15.636 C35.974,15.636 38.417,13.191 38.417,10.187 L38.417,5.665 C38.417,2.66 35.974,0.216 32.969,0.216 L32.969,0.216 Z M36.918,10.187 C36.918,12.364 35.146,14.136 32.969,14.136 L11.317,14.136 C9.141,14.136 7.37,12.364 7.37,10.187 L7.37,5.665 C7.37,3.487 9.141,1.716 11.317,1.716 L32.969,1.716 C35.146,1.716 36.918,3.487 36.918,5.665 L36.918,10.187 L36.918,10.187 Z M22.129,26.181 L19.245,26.181 C17.684,26.181 16.414,27.451 16.414,29.013 L16.414,41.763 C16.414,43.324 17.684,44.595 19.245,44.595 L22.129,44.595 C23.69,44.595 24.961,43.324 24.961,41.763 L24.961,29.013 C24.961,27.451 23.69,26.181 22.129,26.181 L22.129,26.181 Z M23.461,41.763 C23.461,42.497 22.863,43.095 22.129,43.095 L19.245,43.095 C18.512,43.095 17.914,42.497 17.914,41.763 L17.914,29.013 C17.914,28.278 18.512,27.681 19.245,27.681 L22.129,27.681 C22.863,27.681 23.461,28.278 23.461,29.013 L23.461,41.763 L23.461,41.763 Z" id="Fill-30" fill="#5B5B58" sketch:type="MSShapeGroup"></path>
    </g>
</svg>