<?xml version="1.0" encoding="UTF-8" standalone="no"?>
<svg width="36px" height="29px" viewBox="0 0 36 29" version="1.1" xmlns="http://www.w3.org/2000/svg" xmlns:xlink="http://www.w3.org/1999/xlink" xmlns:sketch="http://www.bohemiancoding.com/sketch/ns">
    <!-- Generator: Sketch 3.3.3 (12081) - http://www.bohemiancoding.com/sketch -->
    <title>Fill 108 Copy</title>
    <desc>Created with Sketch.</desc>
    <defs></defs>
    <g id="Contact" stroke="none" stroke-width="1" fill="none" fill-rule="evenodd" sketch:type="MSPage">
        <g id="Desktop-HD" sketch:type="MSArtboardGroup" transform="translate(-1128.000000, -625.000000)" fill="#5B5B58">
            <path d="M1133.8842,636.655505 L1144.90218,625.746614 L1144.90218,655.877265 C1144.90218,656.487574 1145.3975,656.982896 1146.00781,656.982896 C1146.61664,656.982896 1147.11344,656.487574 1147.11344,655.877265 L1147.11344,625.768727 L1158.10636,636.655505 C1158.32011,636.870735 1158.60168,636.976875 1158.88472,636.976875 C1159.16776,636.976875 1159.45375,636.867786 1159.67046,636.648134 C1160.09944,636.214727 1160.09649,635.515968 1159.66161,635.085509 L1146.77291,622.320633 C1146.34539,621.893122 1145.64664,621.893122 1145.21913,622.320633 L1132.32894,635.085509 C1131.89406,635.514494 1131.88964,636.214727 1132.3201,636.648134 C1132.74761,637.081541 1133.44932,637.087438 1133.8842,636.655505 L1133.8842,636.655505 Z" id="Fill-108-Copy" sketch:type="MSShapeGroup" transform="translate(1145.995000, 639.491448) rotate(90.000000) translate(-1145.995000, -639.491448) "></path>
        </g>
    </g>
</svg>