<?xml version="1.0" encoding="UTF-8" standalone="no"?>
<svg width="19px" height="29px" viewBox="0 0 19 29" version="1.1" xmlns="http://www.w3.org/2000/svg" xmlns:xlink="http://www.w3.org/1999/xlink" xmlns:sketch="http://www.bohemiancoding.com/sketch/ns">
    <!-- Generator: Sketch 3.3.3 (12081) - http://www.bohemiancoding.com/sketch -->
    <title>Fill 82</title>
    <desc>Created with Sketch.</desc>
    <defs></defs>
    <g id="Icons" stroke="none" stroke-width="1" fill="none" fill-rule="evenodd" sketch:type="MSPage">
        <g id="outline" sketch:type="MSLayerGroup" transform="translate(-805.000000, -699.000000)" fill="#5B5B58">
            <g id="Fill-82" transform="translate(805.000000, 699.000000)" sketch:type="MSShapeGroup">
                <path d="M18.1545847,0.258456653 L4.45576815,0.258456653 C4.41218044,0.259070565 0.090858871,0.399042339 0.090858871,6.58542641 L0.090858871,28.1011754 C0.090858871,28.2712288 0.184787298,28.4271623 0.334581653,28.5069708 C0.483148185,28.5873931 0.664865927,28.5787984 0.806679435,28.484256 L6.55902823,24.65038 L8.23500605,24.65038 L13.9867409,28.484256 C14.0634798,28.5358246 14.152497,28.5616089 14.242128,28.5616089 C14.3164113,28.5616089 14.3906946,28.5438054 14.4594526,28.5069708 C14.609247,28.4271623 14.7025615,28.2712288 14.7025615,28.1011754 L14.7025615,6.58542641 C14.7025615,1.38621169 18.0299607,1.1854627 18.1693185,1.17932359 C18.4197944,1.17134274 18.6187016,0.962612903 18.6150181,0.711523185 C18.6107208,0.460433468 18.4056744,0.258456653 18.1545847,0.258456653 L18.1545847,0.258456653 Z M13.7816946,6.58542641 L13.7816946,27.2410857 L8.63036492,23.8068659 C8.55485383,23.7565252 8.4664506,23.7295131 8.37559173,23.7295131 L6.41967036,23.7295131 C6.32819758,23.7295131 6.23979435,23.7565252 6.16428327,23.8068659 L1.01172581,27.2410857 L1.01172581,6.58542641 C1.01172581,1.33464315 4.33114415,1.18300706 4.46252117,1.17932359 L15.8775877,1.17932359 C14.816749,2.00994556 13.7816946,3.5889254 13.7816946,6.58542641 L13.7816946,6.58542641 Z" id="bookmark"></path>
            </g>
        </g>
    </g>
</svg>