<?xml version="1.0" encoding="UTF-8" standalone="no"?>
<svg width="1019px" height="665px" viewBox="0 0 1019 665" version="1.1" xmlns="http://www.w3.org/2000/svg" xmlns:xlink="http://www.w3.org/1999/xlink" xmlns:sketch="http://www.bohemiancoding.com/sketch/ns">
    <!-- Generator: Sketch 3.3.3 (12081) - http://www.bohemiancoding.com/sketch -->
    <title>Fill 41</title>
    <desc>Created with Sketch.</desc>
    <defs></defs>
    <g id="Contact" stroke="none" stroke-width="1" fill="none" fill-rule="evenodd" sketch:type="MSPage">
        <g id="Desktop-HD" sketch:type="MSArtboardGroup" transform="translate(-145.000000, -162.000000)" fill-opacity="0.07" fill="#5B5B58">
            <path d="M1185.69486,207.848687 C1185.49328,206.869457 1185.15058,205.968565 1184.76756,205.048088 C1184.44502,204.323458 1184.12248,203.637997 1183.73946,202.991705 C1183.57819,202.737105 1183.49756,202.443336 1183.33629,202.188736 C1182.95327,201.699121 1182.4493,201.366182 1182.02597,200.935321 C1181.46152,200.308613 1180.93739,199.74066 1180.31247,199.251045 C1179.52628,198.643922 1178.69977,198.232645 1177.8531,197.801784 C1177.20802,197.468846 1176.54278,197.096738 1175.81706,196.861723 C1174.76881,196.5092 1173.70039,196.391692 1172.59166,196.274184 C1172.04737,196.215431 1171.56356,196 1171.01927,196 L1170.97896,196 L180.094322,197.684276 C174.268435,197.703861 168.946517,200.97449 166.446828,206.105657 C163.94714,211.236824 164.733332,217.327637 168.442547,221.695004 L342.997417,427.842575 L322.495938,619.007921 C321.951651,624.197842 324.229593,629.270255 328.523413,632.345038 C331.204531,634.26433 334.3493,635.223976 337.534387,635.223976 C339.509948,635.223976 341.525826,634.851868 343.420751,634.068484 L464.534696,584.245244 L614.979666,817.106218 C617.499513,821.042724 621.793333,823.588723 626.570964,823.941246 C626.994298,823.980415 627.357156,824 627.800649,824 C632.094469,824 636.267337,822.198216 639.129883,819.02551 L1182.36867,220.40242 C1182.59041,220.128236 1182.69121,219.795297 1182.91295,219.521113 C1183.3766,218.894405 1183.79994,218.228529 1184.1628,217.543067 C1184.62645,216.700929 1185.02962,215.89796 1185.31185,214.997069 C1185.53359,214.311607 1185.67471,213.645731 1185.7755,212.9211 C1185.93677,211.902701 1185.97709,210.92347 1185.93677,209.924655 C1185.89645,209.513379 1186.05772,209.160856 1185.97709,208.749579 C1185.93677,208.416641 1185.73518,208.181625 1185.69486,207.848687 L1185.69486,207.848687 Z M212.106463,227.002432 L1056.01344,225.553172 L364.164135,406.612861 L212.106463,227.002432 L212.106463,227.002432 Z M372.650981,434.814695 L936.330765,287.323021 L426.414445,488.280671 C422.543959,488.848625 418.935538,490.807085 416.476167,494.077715 L358.035866,571.045219 L372.650981,434.814695 L372.650981,434.814695 Z M384.947836,585.087382 L428.248894,528.076592 L448.266562,559.05944 L384.947836,585.087382 L384.947836,585.087382 Z M629.836686,784.850371 L452.157206,509.823739 L1117.25581,247.722946 L629.836686,784.850371 L629.836686,784.850371 Z" id="Fill-41" sketch:type="MSShapeGroup" transform="translate(675.500000, 510.000000) rotate(-4.000000) translate(-675.500000, -510.000000) "></path>
        </g>
    </g>
</svg>