<?xml version="1.0" encoding="UTF-8" standalone="no"?>
<svg width="31px" height="14px" viewBox="0 0 31 14" version="1.1" xmlns="http://www.w3.org/2000/svg" xmlns:xlink="http://www.w3.org/1999/xlink" xmlns:sketch="http://www.bohemiancoding.com/sketch/ns">
    <!-- Generator: Sketch 3.3.3 (12081) - http://www.bohemiancoding.com/sketch -->
    <title>Hamburger</title>
    <desc>Created with Sketch.</desc>
    <defs></defs>
    <g id="Icons" stroke="none" stroke-width="1" fill="none" fill-rule="evenodd" sketch:type="MSPage">
        <path d="M29.5801123,6.13310072 L0.639858418,6.13310072 C0.347368485,6.13310072 0.109985352,6.35710072 0.109985352,6.63310072 C0.109985352,6.90910072 0.347368485,7.13310072 0.639858418,7.13310072 L29.5801123,7.13310072 C29.8718957,7.13310072 30.1099854,6.90910072 30.1099854,6.63310072 C30.1099854,6.35710072 29.8718957,6.13310072 29.5801123,6.13310072 L29.5801123,6.13310072 Z M29.5801123,12.1331007 L0.639858418,12.1331007 C0.347368485,12.1331007 0.109985352,12.3571007 0.109985352,12.6331007 C0.109985352,12.9091007 0.347368485,13.1331007 0.639858418,13.1331007 L29.5801123,13.1331007 C29.8718957,13.1331007 30.1099854,12.9091007 30.1099854,12.6331007 C30.1099854,12.3571007 29.8718957,12.1331007 29.5801123,12.1331007 L29.5801123,12.1331007 Z M29.5801123,0.0800170898 L0.639858418,0.0800170898 C0.347368485,0.0800170898 0.109985352,0.30401709 0.109985352,0.58001709 C0.109985352,0.85601709 0.347368485,1.08001709 0.639858418,1.08001709 L29.5801123,1.08001709 C29.8718957,1.08001709 30.1099854,0.85601709 30.1099854,0.58001709 C30.1099854,0.30401709 29.8718957,0.0800170898 29.5801123,0.0800170898 L29.5801123,0.0800170898 Z" id="Hamburger" fill="#5B5B58" sketch:type="MSShapeGroup"></path>
    </g>
</svg>