<?xml version="1.0" encoding="UTF-8" standalone="no"?>
<svg width="17px" height="16px" viewBox="0 0 17 16" version="1.1" xmlns="http://www.w3.org/2000/svg" xmlns:xlink="http://www.w3.org/1999/xlink" xmlns:sketch="http://www.bohemiancoding.com/sketch/ns">
    <!-- Generator: Sketch 3.3.3 (12081) - http://www.bohemiancoding.com/sketch -->
    <title>Shape</title>
    <desc>Created with Sketch.</desc>
    <defs></defs>
    <g id="Page-1" stroke="none" stroke-width="1" fill="none" fill-rule="evenodd" sketch:type="MSPage">
        <path d="M0.810431433,10.7004025 C0.867517831,10.3875791 1.01736963,10.1253594 1.25998682,9.91374353 C1.50260401,9.70212766 1.77233725,9.59631972 2.06918652,9.59631972 L4.68088924,9.59631972 L5.31454827,6.40368028 L2.93404545,6.40368028 C2.60865298,6.40368028 2.34034691,6.26873682 2.12912724,5.99884991 C1.92932484,5.72282921 1.86367548,5.40387196 1.93217916,5.04197815 C1.98926556,4.72302089 2.1376902,4.45926778 2.37745307,4.2507188 C2.61721594,4.04216983 2.88552201,3.93789534 3.18237129,3.93789534 L5.79407401,3.93789534 L6.3506664,1.1132835 C6.41346144,0.794326241 6.56616755,0.529039678 6.80878475,0.317423807 C7.05140194,0.105807936 7.32113517,0 7.61798444,0 C7.96050283,0 8.23166323,0.134943454 8.43146562,0.404830362 C8.63126801,0.67471727 8.69406305,0.993674526 8.61985073,1.36170213 L8.11463611,3.93789534 L11.0517313,3.93789534 L11.6083237,1.1132835 C11.6711187,0.794326241 11.8223977,0.529039678 12.0621606,0.317423807 C12.3019234,0.105807936 12.5702295,0 12.8670788,0 C13.2095972,0 13.4807576,0.134943454 13.68056,0.404830362 C13.886071,0.662449684 13.9517203,0.981406939 13.877508,1.36170213 L13.3722934,3.93789534 L15.7442333,3.93789534 C16.0753344,3.93789534 16.3464948,4.0728388 16.5577144,4.3427257 C16.7575168,4.61874641 16.8231662,4.93770366 16.7546625,5.29959747 C16.6975761,5.61855472 16.5491515,5.88230784 16.3093886,6.09085681 C16.0696257,6.29940579 15.8013197,6.40368028 15.5044704,6.40368028 L12.8927677,6.40368028 L12.2505457,9.59631972 L14.6310485,9.59631972 C14.9621496,9.59631972 15.23331,9.73126318 15.4445297,10.0011501 C15.6443321,10.2771708 15.7099814,10.5991949 15.6414777,10.9672225 C15.5786827,11.2861798 15.4288309,11.5499329 15.1919224,11.7584819 C14.9550138,11.9670309 14.6881349,12.0713053 14.3912856,12.0713053 L11.762457,12.0713053 L11.2144275,14.8959172 C11.1516325,15.2148744 11.0003535,15.4786276 10.7605907,15.6871765 C10.5208278,15.8957255 10.2525217,16 9.95567246,16 C9.62457135,16 9.35341095,15.8681234 9.14219128,15.6043703 C8.94238889,15.3283496 8.87673953,15.0093924 8.94524321,14.6474986 L9.45902079,12.0713053 L6.51336263,12.0713053 L5.94820729,14.8959172 C5.88541225,15.2148744 5.73556046,15.4786276 5.4986519,15.6871765 C5.26174335,15.8957255 4.99486444,16 4.69801516,16 C4.36691405,16 4.09575366,15.8681234 3.88453399,15.6043703 C3.68473159,15.3283496 3.61908223,15.0093924 3.68758591,14.6474986 L4.2013635,12.0713053 L1.82086068,12.0713053 C1.48405093,12.0713053 1.21289054,11.933295 1.00737951,11.6572743 C0.801868473,11.399655 0.736219115,11.0806977 0.810431433,10.7004025 L0.810431433,10.7004025 Z M7.00145134,9.59631972 L9.93854654,9.59631972 L10.5722056,6.40368028 L7.6265474,6.40368028 L7.00145134,9.59631972 Z" id="Shape" fill="#736E6E" sketch:type="MSShapeGroup"></path>
    </g>
</svg>