<?xml version="1.0" encoding="UTF-8" standalone="no"?>
<svg width="11px" height="11px" viewBox="0 0 11 11" version="1.1" xmlns="http://www.w3.org/2000/svg" xmlns:xlink="http://www.w3.org/1999/xlink" xmlns:sketch="http://www.bohemiancoding.com/sketch/ns">
    <!-- Generator: Sketch 3.3.3 (12081) - http://www.bohemiancoding.com/sketch -->
    <title>hash</title>
    <desc>Created with Sketch.</desc>
    <defs></defs>
    <g id="Page-1" stroke="none" stroke-width="1" fill="none" fill-rule="evenodd" sketch:type="MSPage">
        <g id="hash" sketch:type="MSLayerGroup" fill="#736E6E">
            <g id="Page-1" sketch:type="MSShapeGroup">
                <path d="M0.52439681,7.35652672 C0.561335067,7.14146063 0.658297996,6.96118459 0.815285589,6.81569868 C0.972273183,6.67021277 1.14680646,6.59746981 1.3388854,6.59746981 L3.02881068,6.59746981 L3.43882535,4.40253019 L1.8985,4.40253019 C1.68795193,4.40253019 1.51434212,4.30975656 1.37767057,4.12420931 C1.24838666,3.93444508 1.20590766,3.71516197 1.25023357,3.46635998 C1.28717183,3.24707686 1.38321131,3.0657466 1.53835199,2.92236917 C1.69349267,2.77899176 1.86710248,2.70730305 2.05918142,2.70730305 L3.74910671,2.70730305 L4.10925473,0.765382406 C4.14988681,0.546099291 4.24869665,0.363714779 4.40568425,0.218228867 C4.56267184,0.072742956 4.73720511,0 4.92928405,0 C5.1509136,0 5.32637033,0.0927736246 5.45565422,0.278320874 C5.58493812,0.463868123 5.62557021,0.683151237 5.57755047,0.936170214 L5.25064689,2.70730305 L7.15112025,2.70730305 L7.51126828,0.765382406 C7.55190034,0.546099291 7.64978675,0.363714779 7.80492745,0.218228867 C7.96006808,0.072742956 8.13367791,0 8.32575687,0 C8.54738642,0 8.72284315,0.0927736246 8.85212706,0.278320874 C8.98510476,0.455434158 9.02758372,0.674717271 8.979564,0.936170214 L8.65266044,2.70730305 L10.1874451,2.70730305 C10.401687,2.70730305 10.5771437,2.80007668 10.7138152,2.98562392 C10.8430991,3.17538816 10.8855781,3.39467127 10.8412522,3.64347326 C10.8043139,3.86275637 10.7082745,4.04408664 10.5531338,4.18746406 C10.3979931,4.33084148 10.2243833,4.40253019 10.0323044,4.40253019 L8.3423791,4.40253019 L7.92682369,6.59746981 L9.46714903,6.59746981 C9.68139092,6.59746981 9.85684765,6.69024344 9.99351922,6.87579069 C10.1228031,7.06555493 10.1652821,7.28694649 10.1209562,7.53996547 C10.0803241,7.75924861 9.98336117,7.94057887 9.83006744,8.08395631 C9.67677364,8.22733374 9.50408729,8.29902239 9.31200833,8.29902239 L7.61100159,8.29902239 L7.25639426,10.2409431 C7.21576221,10.4602262 7.11787579,10.6415565 6.96273516,10.7849338 C6.80759446,10.9283113 6.63398463,11 6.44190571,11 C6.22766381,11 6.05220709,10.9093348 5.91553553,10.7280046 C5.78625163,10.5382403 5.74377264,10.3189573 5.78809855,10.0701553 L6.12054286,8.29902239 L4.21452876,8.29902239 L3.84884001,10.2409431 C3.80820793,10.4602262 3.711245,10.6415565 3.55795123,10.7849338 C3.40465746,10.9283113 3.23197111,11 3.03989216,11 C2.82565027,11 2.65019354,10.9093348 2.51352199,10.7280046 C2.38423809,10.5382403 2.34175909,10.3189573 2.386085,10.0701553 L2.71852932,8.29902239 L1.17820397,8.29902239 C0.960268249,8.29902239 0.784811526,8.20414031 0.651833801,8.01437608 C0.518856071,7.83726281 0.476377074,7.61797967 0.52439681,7.35652672 L0.52439681,7.35652672 L0.52439681,7.35652672 Z M4.53035087,6.59746981 L6.43082423,6.59746981 L6.84083892,4.40253019 L4.93482479,4.40253019 L4.53035087,6.59746981 L4.53035087,6.59746981 Z" id="Shape"></path>
            </g>
        </g>
    </g>
</svg>