<?xml version="1.0" encoding="UTF-8" standalone="no"?>
<svg width="30px" height="30px" viewBox="0 0 30 30" version="1.1" xmlns="http://www.w3.org/2000/svg" xmlns:xlink="http://www.w3.org/1999/xlink" xmlns:sketch="http://www.bohemiancoding.com/sketch/ns">
    <!-- Generator: Sketch 3.3.3 (12081) - http://www.bohemiancoding.com/sketch -->
    <title>Fill 83</title>
    <desc>Created with Sketch.</desc>
    <defs></defs>
    <g id="Icons" stroke="none" stroke-width="1" fill="none" fill-rule="evenodd" sketch:type="MSPage">
        <g id="outline" sketch:type="MSLayerGroup" transform="translate(-722.000000, -700.000000)" fill="#5B5B58">
            <path d="M730.704834,711.938726 L725.032569,711.94133 C725.032569,711.94133 724.952494,711.932867 724.82099,711.932867 C724.399134,711.932867 723.604249,712.023357 723.029405,712.633355 C722.585415,713.105339 722.383602,713.770022 722.433079,714.608525 C722.571744,716.970396 723.224058,726.221273 723.228615,726.280515 C723.228615,727.290234 723.838613,729.200953 726.147752,729.200953 L730.910554,729.200302 C730.919668,729.200953 730.941151,729.200953 730.948963,729.200953 C731.456102,729.200953 732.315437,728.861776 732.315437,727.589048 L732.315437,714.022614 C732.360357,713.790203 732.45866,713.051305 732.025086,712.499247 C731.823272,712.243399 731.431363,711.938726 730.704834,711.938726 L730.704834,711.938726 Z M731.352591,713.855955 C731.343477,713.893063 731.33892,713.932124 731.33892,713.970533 L731.33892,727.589048 C731.33892,728.141106 731.094139,728.224436 730.948963,728.224436 L730.948963,728.712695 L730.935943,728.224436 L726.147752,728.224436 C724.276744,728.224436 724.207086,726.47712 724.204482,726.246011 C724.197972,726.152916 723.54696,716.907898 723.408945,714.551236 C723.375744,713.991366 723.487718,713.571463 723.74031,713.303246 C724.07493,712.947143 724.607458,712.909384 724.82099,712.909384 C724.882185,712.909384 724.921897,712.912639 724.980488,712.915243 L730.704834,712.915243 C730.973051,712.915243 731.157287,712.97774 731.256241,713.101433 C731.426806,713.316267 731.381886,713.729659 731.352591,713.855955 L731.352591,713.855955 Z M750.103682,714.950957 C750.036628,714.92101 749.968272,714.894319 749.900567,714.868279 C750.39794,714.556444 750.892058,714.035635 750.892058,713.137889 C750.892058,712.524636 750.705868,712.03833 750.338047,711.693294 C749.772317,711.157512 748.980036,711.116498 748.75088,711.116498 L744.421652,711.116498 C744.350691,711.116498 744.196402,711.039027 744.174918,711.031215 C744.036253,710.267578 743.877406,709.402384 744.623465,707.920681 C744.992589,707.186991 744.976965,705.700731 744.586358,704.224887 C744.220489,702.828467 743.562316,701.58829 742.729021,700.73286 C742.712746,700.715283 742.694518,700.70031 742.67694,700.685336 C742.492053,700.543416 741.826719,700.090963 741.060478,700.225722 C740.55985,700.313609 740.139947,700.620886 739.809884,701.138441 C739.760408,701.217213 739.733716,701.307704 739.733716,701.400798 L739.728508,704.893476 C739.682286,705.341373 739.516929,706.252138 739.184262,706.830887 C738.933623,707.269018 737.750083,709.190805 736.644014,710.889295 C735.605651,712.483622 735.219601,712.975787 735.079633,713.129426 C734.625878,713.63396 733.694931,713.68539 733.179981,713.66586 C732.924784,713.664558 732.684561,713.868976 732.676098,714.138494 C732.667634,714.408013 732.879864,714.633263 733.149383,714.642377 C733.983329,714.667116 735.123251,714.540169 735.80486,713.784344 C736.084144,713.477066 736.64141,712.682181 737.462336,711.421822 C738.503955,709.820984 739.739575,707.826935 740.03253,707.316542 C740.530554,706.448093 740.67573,705.228096 740.68875,705.056229 C740.70763,704.978108 740.710234,704.907799 740.710234,704.854416 L740.710234,701.551833 C740.867779,701.340254 741.038995,701.221119 741.22909,701.187267 C741.581287,701.126071 741.94976,701.364993 742.055875,701.44051 C742.76027,702.176804 743.322093,703.251625 743.642391,704.473574 C744.004353,705.845256 743.969199,707.047674 743.751761,707.481899 C742.858573,709.255906 743.064943,710.383459 743.214676,711.206988 C743.319489,711.777275 743.995239,712.093015 744.421652,712.093015 L748.75088,712.093015 C748.96962,712.093015 749.409053,712.158117 749.668806,712.404199 C749.834814,712.559791 749.91554,712.800014 749.91554,713.137889 C749.91554,713.832519 749.398637,714.086413 748.774967,714.325335 L748.653228,714.37351 C748.519771,714.426893 748.111586,714.589646 748.13958,715.000434 C748.168875,715.413826 748.552321,715.508223 748.922747,715.598714 C749.155158,715.656003 749.444207,715.726963 749.705914,715.842843 C750.04444,715.994529 750.492987,716.704132 750.420725,717.373372 C750.328932,718.200808 749.483268,718.54324 748.788639,718.685811 C748.35181,718.776953 748.191661,719.061445 748.185802,719.296461 C748.182547,719.483952 748.26197,719.820525 748.849183,719.970258 C748.959204,720.002157 749.302938,720.3511 749.323119,720.811365 C749.349811,721.436336 748.734605,721.808715 748.209238,722.012482 C748.177339,722.025502 748.148043,722.034616 748.12005,722.043079 C747.962505,722.093858 747.633093,722.199322 747.540649,722.630292 C747.439091,723.077537 747.831651,723.299532 747.980082,723.382861 C748.215748,723.516319 748.460529,723.654333 748.460529,724.303392 C748.460529,724.515622 748.40324,724.722643 748.288011,724.919249 C748.171479,725.11911 747.873967,725.339803 747.712516,725.458938 C747.418259,725.678329 746.75618,725.953056 746.424815,726.022714 L746.357761,726.037036 C744.219838,726.472563 741.551341,727.014205 737.558686,726.958218 C735.465032,726.926318 734.296466,726.317622 733.735294,726.025969 C733.406533,725.854753 733.168914,725.732363 732.894838,725.872981 C732.662426,725.990163 732.588211,726.259031 732.693024,726.497302 C732.795233,726.725807 733.075819,726.831271 733.313438,726.7538 C733.199511,726.804579 733.094698,726.792861 733.054335,726.778539 C733.107718,726.797418 733.182585,726.839083 733.284143,726.891815 C733.912369,727.218623 735.220252,727.89893 737.543713,727.934735 C737.743573,727.93734 737.938226,727.938642 738.130925,727.938642 C741.912652,727.938642 744.475686,727.417181 746.553064,726.993372 L746.623373,726.97905 C747.073874,726.883351 747.872665,726.557195 748.294521,726.242756 C748.594637,726.021412 748.930559,725.755799 749.132373,725.410763 C749.334837,725.063123 749.437697,724.690093 749.437697,724.303392 C749.437697,723.489627 749.14344,723.052798 748.852438,722.798904 C750.173992,722.17849 750.328932,721.2521 750.296382,720.734545 C750.266435,720.251495 750.040534,719.764538 749.726747,719.429918 C751.024864,718.933196 751.330839,718.026337 751.390733,717.480138 C751.513123,716.366257 750.825003,715.273208 750.103682,714.950957 L750.103682,714.950957 Z" id="Fill-83" sketch:type="MSShapeGroup"></path>
        </g>
    </g>
</svg>