<?xml version="1.0" encoding="UTF-8" standalone="no"?>
<svg width="34px" height="30px" viewBox="0 0 34 30" version="1.1" xmlns="http://www.w3.org/2000/svg" xmlns:xlink="http://www.w3.org/1999/xlink" xmlns:sketch="http://www.bohemiancoding.com/sketch/ns">
    <!-- Generator: Sketch 3.3.3 (12081) - http://www.bohemiancoding.com/sketch -->
    <title>Fill 84</title>
    <desc>Created with Sketch.</desc>
    <defs></defs>
    <g id="Icons" stroke="none" stroke-width="1" fill="none" fill-rule="evenodd" sketch:type="MSPage">
        <g id="outline" sketch:type="MSLayerGroup" transform="translate(-647.000000, -703.000000)" fill="#5B5B58">
            <path d="M672.468401,704.007901 C669.208484,704.007901 666.223867,705.97009 664.452749,709.203491 C662.646537,705.846868 659.72743,703.88 656.462834,703.88 C652.24444,703.88 647.947277,707.473707 647.898924,714.342929 C647.85915,719.900385 652.224163,722.531714 655.732082,724.645981 C656.35209,725.018766 656.955721,725.382192 657.514118,725.748737 C661.171776,728.143762 663.586298,731.342068 663.91073,732.458083 C663.983259,732.709205 664.211765,732.88 664.472246,732.88 L664.480825,732.88 C664.743646,732.876101 664.972152,732.696727 665.039222,732.441705 C665.3231,731.342848 668.012142,728.082151 671.419456,725.671529 C672.088597,725.197359 672.820909,724.741127 673.596893,724.258378 C677.093115,722.083281 681.054148,719.618066 681.015933,714.279758 C680.967581,707.221804 676.551875,704.007901 672.468401,704.007901 L672.468401,704.007901 Z M672.979225,723.264806 C672.187642,723.757693 671.439733,724.223284 670.743297,724.71695 C668.173578,726.534861 665.610098,729.127196 664.469127,730.956025 C663.430321,729.253538 661.162417,726.739191 658.155963,724.769983 C657.584308,724.395638 656.968199,724.025193 656.337273,723.644609 C652.91358,721.581035 649.032876,719.242162 649.06953,714.351507 C649.113984,707.960355 652.932298,705.049827 656.462834,705.049827 C659.59173,705.049827 662.376697,707.191389 663.913069,710.778077 C664.005096,710.992545 664.216444,711.132145 664.45119,711.132145 C664.686715,711.132145 664.897283,710.991765 664.98853,710.776517 C666.458612,707.32241 669.325467,705.177728 672.468401,705.177728 C675.991918,705.177728 679.803213,708.028205 679.845327,714.288337 C679.879642,718.970762 676.371722,721.153659 672.979225,723.264806 L672.979225,723.264806 Z" id="Fill-84" sketch:type="MSShapeGroup"></path>
        </g>
    </g>
</svg>