<?xml version="1.0" encoding="UTF-8" standalone="no"?>
<svg width="43px" height="25px" viewBox="0 0 43 25" version="1.1" xmlns="http://www.w3.org/2000/svg" xmlns:xlink="http://www.w3.org/1999/xlink" xmlns:sketch="http://www.bohemiancoding.com/sketch/ns">
    <!-- Generator: Sketch 3.3.3 (12081) - http://www.bohemiancoding.com/sketch -->
    <title>Fill 122</title>
    <desc>Created with Sketch.</desc>
    <defs></defs>
    <g id="Project-Polaroiz" stroke="none" stroke-width="1" fill="none" fill-rule="evenodd" sketch:type="MSPage">
        <g id="Desktop-HD" sketch:type="MSArtboardGroup" transform="translate(-1044.000000, -770.000000)" fill="#5B5B58">
            <g id="view-next" sketch:type="MSLayerGroup" transform="translate(964.000000, 712.000000)">
                <path d="M122.09,58.1020056 C121.858,57.9670056 121.572,57.9660056 121.34,58.0990056 L101.986,69.1570056 L101.986,58.7500056 C101.986,58.4840056 101.844,58.2360056 101.613,58.1020056 C101.381,57.9670056 101.096,57.9660056 100.863,58.0990056 L80.378,69.8010056 C80.145,69.9350056 80,70.1840056 80,70.4520056 C80,70.7220056 80.145,70.9700056 80.378,71.1040056 L100.863,82.8080056 C100.979,82.8730056 101.108,82.9070056 101.237,82.9070056 C101.365,82.9070056 101.496,82.8720056 101.613,82.8050056 C101.844,82.6710056 101.986,82.4240056 101.986,82.1570056 L101.986,71.7480056 L121.34,82.8080056 C121.456,82.8730056 121.584,82.9070056 121.713,82.9070056 C121.842,82.9070056 121.973,82.8720056 122.088,82.8050056 C122.319,82.6710056 122.463,82.4240056 122.463,82.1570056 L122.463,58.7500056 C122.463,58.4830056 122.319,58.2360056 122.09,58.1020056 L122.09,58.1020056 Z M100.486,70.4310056 C100.486,70.4390056 100.481,70.4450056 100.481,70.4520056 C100.481,70.4600056 100.486,70.4670056 100.486,70.4740056 L100.486,80.8650056 L82.261,70.4520056 L100.486,60.0420056 L100.486,70.4310056 L100.486,70.4310056 Z M120.963,80.8640056 L102.742,70.4520056 L120.963,60.0430056 L120.963,80.8640056 L120.963,80.8640056 Z" id="Fill-122" sketch:type="MSShapeGroup" transform="translate(101.231500, 70.453503) scale(-1, 1) translate(-101.231500, -70.453503) "></path>
            </g>
        </g>
    </g>
</svg>