<?xml version="1.0" encoding="UTF-8" standalone="no"?>
<svg width="29px" height="30px" viewBox="0 0 29 30" version="1.1" xmlns="http://www.w3.org/2000/svg" xmlns:xlink="http://www.w3.org/1999/xlink" xmlns:sketch="http://www.bohemiancoding.com/sketch/ns">
    <!-- Generator: Sketch 3.3.3 (12081) - http://www.bohemiancoding.com/sketch -->
    <title>Fill 181</title>
    <desc>Created with Sketch.</desc>
    <defs></defs>
    <g id="Icons" stroke="none" stroke-width="1" fill="none" fill-rule="evenodd" sketch:type="MSPage">
        <g id="outline" sketch:type="MSLayerGroup" transform="translate(-194.000000, -177.000000)" fill="#5B5B58">
            <path d="M217.898334,196.425972 C216.345515,196.425972 214.954073,197.121694 214.012605,198.214492 L206.572604,192.961427 C207.153823,191.993175 207.493983,190.864888 207.493983,189.655578 C207.493983,188.848702 207.338635,188.079993 207.066774,187.366862 L214.002561,184.188908 C214.753191,185.504686 216.16673,186.395932 217.787179,186.395932 C220.189728,186.395932 222.14498,184.44068 222.14498,182.037462 C222.14498,179.635582 220.189728,177.681 217.787179,177.681 C215.38463,177.681 213.429378,179.635582 213.429378,182.037462 C213.429378,182.463332 213.49366,182.87514 213.608163,183.265521 L206.638226,186.458875 C205.52467,184.519024 203.436166,183.205926 201.042322,183.205926 C197.485371,183.205926 194.592,186.099296 194.592,189.655578 C194.592,193.213199 197.485371,196.107239 201.042322,196.107239 C203.031054,196.107239 204.810869,195.201931 205.995403,193.783704 L213.434065,199.03543 C213.012213,199.780033 212.767806,200.637799 212.767806,201.552482 C212.767806,204.380901 215.069245,206.681 217.898334,206.681 C220.726083,206.681 223.025513,204.380901 223.025513,201.552482 C223.025513,198.725402 220.726083,196.425972 217.898334,196.425972 L217.898334,196.425972 Z M217.787179,178.68541 C219.635963,178.68541 221.14057,180.188677 221.14057,182.037462 C221.14057,183.886916 219.635963,185.391522 217.787179,185.391522 C215.938395,185.391522 214.433788,183.886916 214.433788,182.037462 C214.433788,180.188677 215.938395,178.68541 217.787179,178.68541 L217.787179,178.68541 Z M201.042322,195.102829 C198.039136,195.102829 195.59641,192.659434 195.59641,189.655578 C195.59641,186.653061 198.039136,184.210336 201.042322,184.210336 C204.046178,184.210336 206.489573,186.653061 206.489573,189.655578 C206.489573,192.659434 204.046178,195.102829 201.042322,195.102829 L201.042322,195.102829 Z M217.898334,205.67659 C215.62301,205.67659 213.772217,203.826466 213.772217,201.552482 C213.772217,199.279836 215.62301,197.430382 217.898334,197.430382 C220.171649,197.430382 222.021102,199.279836 222.021102,201.552482 C222.021102,203.826466 220.171649,205.67659 217.898334,205.67659 L217.898334,205.67659 Z" id="Fill-181" sketch:type="MSShapeGroup"></path>
        </g>
    </g>
</svg>