<?xml version="1.0" encoding="UTF-8" standalone="no"?>
<svg width="31px" height="30px" viewBox="0 0 31 30" version="1.1" xmlns="http://www.w3.org/2000/svg" xmlns:xlink="http://www.w3.org/1999/xlink" xmlns:sketch="http://www.bohemiancoding.com/sketch/ns">
    <!-- Generator: Sketch 3.3.3 (12081) - http://www.bohemiancoding.com/sketch -->
    <title>Fill 85</title>
    <desc>Created with Sketch.</desc>
    <defs></defs>
    <g id="Icons" stroke="none" stroke-width="1" fill="none" fill-rule="evenodd" sketch:type="MSPage">
        <g id="outline" sketch:type="MSLayerGroup" transform="translate(-573.000000, -702.000000)" fill="#5B5B58">
            <path d="M602.589955,715.591842 C603.006171,715.154339 603.15959,714.643429 603.014245,714.190511 C602.868166,713.736124 602.443876,713.409465 601.848549,713.294951 L594.726643,711.935461 C594.080666,711.81801 593.229149,711.202129 592.903958,710.619281 L588.681612,703.003349 C588.583982,702.828642 588.398997,702.72 588.200065,702.72 C587.998931,702.72 587.815415,702.827908 587.718518,703.002615 L583.487363,710.617079 C583.160704,711.202129 582.30772,711.81801 581.658072,711.936929 L574.526623,713.294951 C573.940105,713.409465 573.518751,713.73539 573.371938,714.187575 C573.224391,714.639759 573.374874,715.150669 573.785217,715.591108 L578.741628,720.843348 C579.193079,721.320491 579.520472,722.322491 579.442661,722.983884 L578.541963,730.10946 C578.460481,730.735618 578.661615,731.115864 578.845866,731.325073 C579.217303,731.750097 579.857408,731.837451 580.49678,731.538686 L587.0652,728.484972 C587.640707,728.21557 588.74621,728.21557 589.325388,728.484972 L595.890138,731.538686 C596.147061,731.659073 596.399579,731.72 596.638885,731.72 C596.998577,731.72 597.318629,731.579793 597.541785,731.325807 C597.726036,731.116598 597.927904,730.736352 597.846423,730.112396 L596.945724,722.981682 C596.859838,722.326895 597.187966,721.327098 597.648225,720.84188 L602.589955,715.591842 L602.589955,715.591842 Z M596.848093,720.085793 C596.162476,720.807379 595.725707,722.142645 595.8527,723.121888 L596.754133,730.252603 C596.782027,730.459609 596.741654,730.567517 596.714493,730.599082 C596.660172,730.659275 596.50088,730.609359 596.356269,730.54109 L589.790051,727.487377 C589.354016,727.284775 588.787318,727.172463 588.193459,727.172463 C587.600333,727.172463 587.034369,727.284775 586.599802,727.487377 L580.030648,730.54109 C579.799417,730.650466 579.709127,730.641657 579.673892,730.599082 C579.645997,730.568251 579.606358,730.460343 579.634986,730.2504 L580.534951,723.117484 C580.651667,722.128697 580.215632,720.797836 579.54176,720.087261 L574.589019,714.837223 C574.422386,714.658845 574.412843,714.547267 574.418715,714.527447 C574.426056,714.506893 574.499463,714.422476 574.735832,714.376229 L581.85994,713.019676 C582.82597,712.8435 583.962304,712.023549 584.447521,711.153681 L588.199331,704.404681 L591.942332,711.155149 C592.426816,712.023549 593.563149,712.8435 594.524775,713.018208 L601.640808,714.376229 C601.88305,714.422476 601.960127,714.508361 601.965265,714.527447 C601.971138,714.545065 601.959393,714.657377 601.789824,714.836489 L596.848093,720.085793 L596.848093,720.085793 Z" id="Fill-85" sketch:type="MSShapeGroup"></path>
        </g>
    </g>
</svg>