<?xml version="1.0" encoding="UTF-8" standalone="no"?>
<svg width="43px" height="43px" viewBox="0 0 43 43" version="1.1" xmlns="http://www.w3.org/2000/svg" xmlns:xlink="http://www.w3.org/1999/xlink" xmlns:sketch="http://www.bohemiancoding.com/sketch/ns">
    <!-- Generator: Sketch 3.3.3 (12081) - http://www.bohemiancoding.com/sketch -->
    <title>Fill 209</title>
    <desc>Created with Sketch.</desc>
    <defs></defs>
    <g id="Project-Polaroiz" stroke="none" stroke-width="1" fill="none" fill-rule="evenodd" sketch:type="MSPage">
        <g id="Desktop-HD" sketch:type="MSArtboardGroup" transform="translate(-964.000000, -722.000000)" fill="#5B5B58">
            <g id="view-next" sketch:type="MSLayerGroup" transform="translate(964.000000, 712.000000)">
                <path d="M28.439,49.765 C28.07,49.557 27.329,49.142 26.975,48.808 C26.843,48.269 26.668,46.149 26.611,44.329 C26.597,43.915 26.283,43.588 25.837,43.604 C25.424,43.616 25.098,43.963 25.112,44.377 C25.18,46.55 25.351,49.24 25.781,49.73 C26.226,50.223 27.008,50.682 27.734,51.089 C27.804,51.126 27.861,51.155 27.904,51.179 C27.898,51.219 27.887,51.269 27.869,51.323 L14.642,51.323 C14.632,51.304 14.62,51.279 14.608,51.25 C14.596,51.216 14.588,51.186 14.581,51.159 L14.737,51.072 C15.434,50.682 16.215,50.223 16.67,49.722 C17.008,49.337 17.231,47.534 17.332,44.362 C17.345,43.948 17.02,43.603 16.606,43.589 C16.193,43.555 15.845,43.9 15.833,44.315 C15.774,46.142 15.6,48.265 15.469,48.806 C15.106,49.146 14.37,49.559 13.989,49.773 L13.802,49.876 C13.64,49.965 13.548,50.023 13.477,50.078 C13.18,50.323 12.887,50.805 13.199,51.763 C13.554,52.64 14.088,52.823 14.472,52.823 L27.999,52.823 C28.578,52.823 29.084,52.43 29.275,51.855 C29.493,51.296 29.488,50.501 28.945,50.062 C28.872,50.006 28.747,49.928 28.439,49.765 L28.439,49.765 Z M41.154,10 L1.328,10 C0.596,10 -7.10542736e-15,10.597 -7.10542736e-15,11.329 L-7.10542736e-15,38.352 C-7.10542736e-15,39.076 0.596,39.665 1.328,39.665 L41.154,39.665 C41.878,39.665 42.467,39.076 42.467,38.352 L42.467,11.329 C42.467,10.597 41.878,10 41.154,10 L41.154,10 Z M1.5,11.5 L40.967,11.5 L40.967,38.165 L1.5,38.165 L1.5,11.5 Z" id="Fill-209" sketch:type="MSShapeGroup"></path>
            </g>
        </g>
    </g>
</svg>