<?xml version="1.0" encoding="UTF-8" standalone="no"?>
<svg width="41px" height="41px" viewBox="0 0 41 41" version="1.1" xmlns="http://www.w3.org/2000/svg" xmlns:xlink="http://www.w3.org/1999/xlink" xmlns:sketch="http://www.bohemiancoding.com/sketch/ns">
    <!-- Generator: Sketch 3.3.3 (12081) - http://www.bohemiancoding.com/sketch -->
    <title>Fill 143</title>
    <desc>Created with Sketch.</desc>
    <defs></defs>
    <g id="Icons" stroke="none" stroke-width="1" fill="none" fill-rule="evenodd" sketch:type="MSPage">
        <g id="outline" sketch:type="MSLayerGroup" transform="translate(-120.000000, -403.000000)" fill="#5B5B58">
            <path d="M141.332,423.538 L160.098,404.772 C160.391,404.479 160.391,404.005 160.098,403.712 C159.805,403.419 159.33,403.419 159.037,403.712 L140.272,422.477 L121.506,403.712 C121.213,403.419 120.739,403.419 120.446,403.712 C120.153,404.005 120.153,404.479 120.446,404.772 L139.211,423.538 L120.446,442.303 C120.153,442.596 120.153,443.07 120.446,443.363 C120.592,443.51 120.784,443.583 120.976,443.583 C121.168,443.583 121.36,443.51 121.506,443.363 L140.272,424.599 L159.037,443.363 C159.184,443.51 159.375,443.583 159.567,443.583 C159.759,443.583 159.951,443.51 160.098,443.363 C160.391,443.07 160.391,442.596 160.098,442.303 L141.332,423.538" id="Fill-143" sketch:type="MSShapeGroup"></path>
        </g>
    </g>
</svg>